<?xml version="1.0" encoding="utf-8"?>
<!-- Generator: Adobe Illustrator 15.0.0, SVG Export Plug-In . SVG Version: 6.00 Build 0)  -->
<!DOCTYPE svg PUBLIC "-//W3C//DTD SVG 1.1//EN" "http://www.w3.org/Graphics/SVG/1.1/DTD/svg11.dtd">
<svg version="1.1" id="Layer_1" xmlns="http://www.w3.org/2000/svg" xmlns:xlink="http://www.w3.org/1999/xlink" x="0px" y="0px"
	 width="800px" height="600px" viewBox="0 0 800 600" enable-background="new 0 0 800 600" xml:space="preserve">
<g>
	<g>
		
			<linearGradient id="SVGID_1_" gradientUnits="userSpaceOnUse" x1="255.8154" y1="578.6094" x2="475.0264" y2="578.6094" gradientTransform="matrix(1 0.0024 0.0026 -1.04 -7.4163 630.1633)">
			<stop  offset="0" style="stop-color:#A8A9A8"/>
			<stop  offset="0.4724" style="stop-color:#D4D4D4"/>
			<stop  offset="1" style="stop-color:#A0A1A0"/>
		</linearGradient>
		<polygon fill="url(#SVGID_1_)" points="251.228,-500.758 251.228,-500.758 251.719,-58.393 251.924,120.571 252.08,266.021 
			252.174,404.961 249.571,558.807 465.975,558.807 468.248,375.561 468.118,230.899 467.948,70.392 467.788,-73.512 
			467.327,-499.51 		"/>
	</g>
</g>
<linearGradient id="SVGID_2_" gradientUnits="userSpaceOnUse" x1="359.9883" y1="488.001" x2="380.4213" y2="487.9514" gradientTransform="matrix(1 0 0 -1 -21 603.5)">
	<stop  offset="0.2454" style="stop-color:#A8A9A8"/>
	<stop  offset="0.4724" style="stop-color:#D4D4D4"/>
	<stop  offset="0.6994" style="stop-color:#A0A1A0"/>
</linearGradient>
<rect x="339.5" y="-95.5" fill="url(#SVGID_2_)" width="19.409" height="422"/>
<g>
	
		<linearGradient id="SVGID_3_" gradientUnits="userSpaceOnUse" x1="240.1416" y1="564.8438" x2="489.5774" y2="564.8438" gradientTransform="matrix(1 0.0024 0.0026 -1.04 -7.4163 630.1633)">
		<stop  offset="0.1718" style="stop-color:#7A797C"/>
		<stop  offset="0.2945" style="stop-color:#7D7D78"/>
		<stop  offset="0.4724" style="stop-color:#D4D4D4"/>
		<stop  offset="0.638" style="stop-color:#A0A1A0"/>
		<stop  offset="0.7914" style="stop-color:#929190"/>
		<stop  offset="0.9693" style="stop-color:#55524B"/>
	</linearGradient>
	<path fill="url(#SVGID_3_)" d="M288.744,276.938l0.208-145.463l0.246-178.981l0.622-442.314l-51.103-0.093l-1.081,442.407
		l-0.429,178.981l-0.362,145.463l-0.407,138.953l-3.56,153.416c0,0,16.299,7.376,53.585,7.376l2.047-160.792L288.744,276.938z"/>
	
		<linearGradient id="SVGID_4_" gradientUnits="userSpaceOnUse" x1="240.1416" y1="565.0625" x2="489.5752" y2="565.0625" gradientTransform="matrix(1 0.0024 0.0026 -1.04 -7.4163 630.1633)">
		<stop  offset="0.1718" style="stop-color:#7A797C"/>
		<stop  offset="0.2945" style="stop-color:#7D7D78"/>
		<stop  offset="0.4724" style="stop-color:#D4D4D4"/>
		<stop  offset="0.638" style="stop-color:#A0A1A0"/>
		<stop  offset="0.7914" style="stop-color:#929190"/>
		<stop  offset="0.9693" style="stop-color:#55524B"/>
	</linearGradient>
	<path fill="url(#SVGID_4_)" d="M358.909-489.695l72.445,0.229L430.75-63.428l-0.202,143.917l-0.231,160.524l-0.223,144.675
		l-1.88,190.995c24.286,0,51.262-7.376,51.262-7.376l3.271-183.619l0.388-144.675l0.402-160.524l0.352-143.917l1.052-426.038
		L358.909-489.695z"/>
	
		<linearGradient id="SVGID_5_" gradientUnits="userSpaceOnUse" x1="293.7261" y1="1077.6328" x2="436.8975" y2="1077.6328" gradientTransform="matrix(1 0.0024 0.0026 -1.04 -7.4163 630.1633)">
		<stop  offset="0.1718" style="stop-color:#7A797C"/>
		<stop  offset="0.2945" style="stop-color:#7D7D78"/>
		<stop  offset="0.4724" style="stop-color:#D4D4D4"/>
		<stop  offset="0.638" style="stop-color:#A0A1A0"/>
		<stop  offset="0.7914" style="stop-color:#929190"/>
		<stop  offset="0.9693" style="stop-color:#55524B"/>
	</linearGradient>
	<polygon fill="url(#SVGID_5_)" points="289.82,-489.914 289.82,-489.821 358.909,-489.695 	"/>
</g>
</svg>
