<?xml version="1.0" encoding="utf-8"?>
<!-- Generator: Adobe Illustrator 15.0.0, SVG Export Plug-In . SVG Version: 6.00 Build 0)  -->
<!DOCTYPE svg PUBLIC "-//W3C//DTD SVG 1.1//EN" "http://www.w3.org/Graphics/SVG/1.1/DTD/svg11.dtd">
<svg version="1.1" id="Layer_1" xmlns="http://www.w3.org/2000/svg" xmlns:xlink="http://www.w3.org/1999/xlink" x="0px" y="0px"
	 width="800px" height="600px" viewBox="0 0 800 600" enable-background="new 0 0 800 600" xml:space="preserve">
<g>
	<g>
		
			<linearGradient id="SVGID_1_" gradientUnits="userSpaceOnUse" x1="266.9248" y1="316.9727" x2="299.6387" y2="316.9727" gradientTransform="matrix(0.9996 0.029 0.0302 -1.0396 25.2933 614.9127)">
			<stop  offset="0.1718" style="stop-color:#7A797C"/>
			<stop  offset="0.2945" style="stop-color:#7D7D78"/>
			<stop  offset="0.4724" style="stop-color:#D4D4D4"/>
			<stop  offset="0.638" style="stop-color:#A0A1A0"/>
			<stop  offset="0.7914" style="stop-color:#929190"/>
			<stop  offset="0.9693" style="stop-color:#55524B"/>
		</linearGradient>
		<polygon fill="url(#SVGID_1_)" points="304.135,223.288 304.135,223.288 302.451,281.287 301.771,304.751 301.217,323.822 
			300.679,342.039 299.655,363 332.008,363 333.077,338.938 333.632,319.971 334.244,298.925 334.792,280.058 336.415,224.205 		"/>
		<g>
			<polygon fill="#3F424F" points="345.583,225.572 345.215,225.562 339.718,220.533 330.763,220.274 330.686,222.938 
				336.114,234.148 348.495,234.508 348.611,230.529 			"/>
			
				<linearGradient id="SVGID_2_" gradientUnits="userSpaceOnUse" x1="264.6724" y1="464.8623" x2="302.0991" y2="464.8623" gradientTransform="matrix(0.9996 0.029 0.029 -0.9996 23.3264 683.5021)">
				<stop  offset="0.0245" style="stop-color:#4F4119"/>
				<stop  offset="0.2331" style="stop-color:#51431A"/>
				<stop  offset="0.4908" style="stop-color:#635938"/>
				<stop  offset="0.681" style="stop-color:#56421B"/>
				<stop  offset="0.8957" style="stop-color:#4D4012"/>
			</linearGradient>
			<polygon fill="url(#SVGID_2_)" points="336.18,231.899 337.679,231.058 338.743,229.035 338.541,223.768 338.203,223.145 
				331.128,222.94 309.903,222.323 309.864,223.649 309.903,222.323 309.903,222.323 303.27,222.131 302.297,222.656 
				301.476,222.964 301.296,229.154 304.119,231.008 336.179,231.937 			"/>
			
				<linearGradient id="SVGID_3_" gradientUnits="userSpaceOnUse" x1="274.4038" y1="480.7383" x2="292.1001" y2="480.7383" gradientTransform="matrix(0.9996 0.029 0.029 -0.9996 23.3264 683.5021)">
				<stop  offset="0.1779" style="stop-color:#6D6A5D"/>
				<stop  offset="0.2822" style="stop-color:#8C8B81"/>
				<stop  offset="0.3926" style="stop-color:#636052"/>
				<stop  offset="0.5583" style="stop-color:#706E61"/>
				<stop  offset="0.6319" style="stop-color:#9C9C94"/>
				<stop  offset="0.7239" style="stop-color:#636052"/>
			</linearGradient>
			<path fill="url(#SVGID_3_)" d="M321.325,216.348c1.583-0.011,5.567,0.068,7.793-0.359l0.198-6.822l-0.885-0.026l0.885,0.026
				l0.064-2.211l-0.215-0.79c-2.29,0.782-6.833,1.167-8.262,1.244c-1.773,0.097-7.441-0.917-7.441-0.917l-1.77-0.05l-0.056,1.94
				l-0.037,1.267c0.442,0.002,0.328-0.011,0.498-0.016c-0.17,0.004-0.056,0.018-0.498,0.016l-0.069,2.354
				c0.442,0,0.328-0.016,0.499-0.021c-0.171,0.005-0.057,0.021-0.499,0.021l-0.083,2.839l-0.038,1.327l0.442,0.012
				C311.852,216.184,319.259,216.362,321.325,216.348z"/>
			<g>
				<polygon fill="none" points="312.77,175.052 312.161,175.035 311.904,183.878 312.328,184.517 312.205,188.755 312.65,188.62 
					312.775,184.346 312.459,183.821 				"/>
				<path fill="none" d="M327.144,172.371c-0.098-0.009-0.198-0.019-0.3-0.028v0.02L327.144,172.371z"/>
				<path fill="#C9C188" d="M326.92,169.703l0.081-2.514l-0.407-1.473l-0.442-0.014l-1.953-0.055
					c0.129,0.888,0.276,2.783,0.521,3.637c0.251,0.875,0.137,2.15,0.05,2.872c0.741,0.06,1.44,0.123,2.073,0.185
					C326.843,172.342,326.92,169.698,326.92,169.703z"/>
			</g>
			<path fill="#A9A480" d="M317.894,166.715c0.183-0.007,0.365-0.068,0.541-0.074c-0.175,0.005-0.355-0.015-0.538-0.009
				c-0.373,0.762-0.641,1.717-0.828,2.613c0.155-0.006,0.31-0.019,0.46-0.022c-0.151,0.003-0.308,0.116-0.463,0.122
				c-0.292,1.394-0.394,2.723-0.394,2.723s-0.467-0.108,0.779-0.143c1.792-0.049,3.952,0.018,5.97,0.16
				c0.29-0.848,0.204-3.188,0.228-4.005c0.017-0.615-0.143-2.009-0.262-2.455l-4.31-0.125
				C318.601,165.484,318.209,166.072,317.894,166.715z"/>
			<path fill="#252212" d="M323.42,172.056c0.46,0.032,0.911,0.066,1.35,0.102c0.087-0.722,0.201-1.997-0.05-2.872
				c-0.245-0.854-0.392-2.75-0.521-3.637l-0.813-0.024c0.119,0.446,0.281,1.826,0.263,2.441
				C323.625,168.881,323.711,171.208,323.42,172.056z"/>
			
				<linearGradient id="SVGID_4_" gradientUnits="userSpaceOnUse" x1="275.2798" y1="489.0039" x2="291.8354" y2="489.0039" gradientTransform="matrix(0.9996 0.029 0.029 -0.9996 23.3264 683.5021)">
				<stop  offset="0.0613" style="stop-color:#756959"/>
				<stop  offset="0.135" style="stop-color:#8D7F4E"/>
				<stop  offset="0.1902" style="stop-color:#DDD7C8"/>
				<stop  offset="0.2515" style="stop-color:#827D75"/>
				<stop  offset="0.362" style="stop-color:#C9C49B"/>
				<stop  offset="0.4356" style="stop-color:#5C5A59"/>
				<stop  offset="0.5337" style="stop-color:#FFFFFF"/>
				<stop  offset="0.6196" style="stop-color:#5C5A59"/>
				<stop  offset="0.6871" style="stop-color:#C9C49B"/>
				<stop  offset="0.7607" style="stop-color:#827D75"/>
				<stop  offset="0.8221" style="stop-color:#DDD7C8"/>
				<stop  offset="0.8957" style="stop-color:#8D7F4E"/>
				<stop  offset="0.9693" style="stop-color:#756959"/>
			</linearGradient>
			<path fill="url(#SVGID_4_)" d="M329.009,204.457l0.068-2.378l0.182-0.054c-2.394,0.062-6.415-0.126-8.123-0.177
				c-1.864-0.054-6.559-0.587-8.412-0.808l0.005,0.121l-0.081,2.784c0.441,0.054,0.147,0.077,0.277,0.088
				C318.649,204.486,326.34,204.921,329.009,204.457z"/>
			
				<linearGradient id="SVGID_5_" gradientUnits="userSpaceOnUse" x1="283.7617" y1="489.6094" x2="283.9904" y2="496.1591" gradientTransform="matrix(0.9996 0.029 0.029 -0.9996 23.3264 683.5021)">
				<stop  offset="0.0123" style="stop-color:#454143"/>
				<stop  offset="0.1276" style="stop-color:#474345"/>
				<stop  offset="0.1692" style="stop-color:#4D4A4B"/>
				<stop  offset="0.1988" style="stop-color:#595556"/>
				<stop  offset="0.2228" style="stop-color:#696665"/>
				<stop  offset="0.2433" style="stop-color:#7E7C79"/>
				<stop  offset="0.2611" style="stop-color:#979791"/>
				<stop  offset="0.2761" style="stop-color:#B3B4AC"/>
				<stop  offset="0.4963" style="stop-color:#BEBFBD"/>
				<stop  offset="0.753" style="stop-color:#C6C7CB"/>
				<stop  offset="0.9877" style="stop-color:#C9CACF"/>
			</linearGradient>
			<path fill="url(#SVGID_5_)" d="M329.371,202.022l0.319-0.282l0.361-0.761l0.23-4.176l0.278,0.008l-0.347,4.3l-0.449,0.494
				l1.133-1.129l0.118-4.095l-1.99-0.057l-16.127-0.911l-0.885-0.025l-0.073,2.505c0.443,0.001,0.329-0.016,0.499-0.021
				c-0.17,0.005-0.056,0.022-0.499,0.021l-0.056,1.953l0.587,0.727l0,0l0,0l0.339,0.431c1.852,0.232,6.491,0.791,8.355,0.844
				C322.872,201.897,326.977,202.094,329.371,202.022z M329.159,201.154l0.227-3.951l0.277,0.017l-0.34,4.053L328.802,202h-0.055
				L329.159,201.154z M327.833,201.135l0.221-3.961l0.263,0.012l-0.329,4.07L327.49,202h-0.053L327.833,201.135z M326.451,201.111
				l0.241-3.97l0.315,0.01l-0.371,4.081l-0.59,0.759l-0.062-0.003L326.451,201.111z M325.18,201.075l0.234-3.969l0.295,0.007
				l-0.356,4.084l-0.555,0.759l-0.059-0.002L325.18,201.075z M323.866,200.593l0.208-3.97l0.231,0.007l-0.304,4.086l-0.439,0.761
				l-0.046-0.001L323.866,200.593z M322.539,200.555l0.234-3.969l0.296,0.008l-0.355,4.084l-0.557,0.758l-0.059-0.002
				L322.539,200.555z M313.56,201.186l-0.475-0.788l-0.103-4.096l0.276,0.007l-0.004,3.976l0.362,0.903L313.56,201.186z
				 M314.885,201.225l-0.474-0.788l-0.103-4.097l0.277,0.008l-0.005,3.976l0.361,0.903L314.885,201.225z M316.212,202l-0.476-1.156
				l-0.102-4.282l0.276-0.084l-0.004,4.299l0.361,1.224L316.212,202L316.212,202z M317.54,201.302l-0.476-0.788l-0.103-4.098
				l0.276,0.009l-0.003,3.976l0.36,0.903L317.54,201.302z M318.866,202l-0.475-1.118l-0.103-4.261l0.276-0.075l-0.004,4.263
				l0.361,1.19L318.866,202L318.866,202z M320.192,202l-0.475-1.1l-0.103-4.25l0.277-0.07l-0.005,4.245l0.361,1.175H320.192z
				 M320.941,196.533l0.276,0.007l-0.004,4.267l0.362,1.193h-0.056l-0.475-1.078L320.941,196.533z"/>
			
				<linearGradient id="SVGID_6_" gradientUnits="userSpaceOnUse" x1="275.2886" y1="486.0371" x2="291.8335" y2="486.0371" gradientTransform="matrix(0.9996 0.029 0.029 -0.9996 23.3264 683.5021)">
				<stop  offset="0.2025" style="stop-color:#47422C"/>
				<stop  offset="0.2349" style="stop-color:#4C4732"/>
				<stop  offset="0.2777" style="stop-color:#5B5743"/>
				<stop  offset="0.3263" style="stop-color:#73705E"/>
				<stop  offset="0.3792" style="stop-color:#959384"/>
				<stop  offset="0.4356" style="stop-color:#C0C0B5"/>
				<stop  offset="0.4941" style="stop-color:#F4F6F0"/>
				<stop  offset="0.5031" style="stop-color:#FDFFFA"/>
				<stop  offset="0.5658" style="stop-color:#CECFC8"/>
				<stop  offset="0.669" style="stop-color:#87847C"/>
				<stop  offset="0.7426" style="stop-color:#5A564B"/>
				<stop  offset="0.7791" style="stop-color:#494439"/>
			</linearGradient>
			<path fill="url(#SVGID_6_)" d="M313.461,206.494c0,0,5.72,1.172,7.492,1.076c1.429-0.079,5.894-0.622,8.184-1.405l-0.17-0.217
				l0.042-1.491c-2.669,0.464-10.36,0.029-16.083-0.423c-0.129-0.011,0.164-0.034-0.277-0.088l-0.009,0.312L313.461,206.494z"/>
			<polygon fill="none" points="279.438,273.219 279.549,273.387 279.551,273.231 			"/>
			
				<linearGradient id="SVGID_7_" gradientUnits="userSpaceOnUse" x1="275.1782" y1="499.1777" x2="292.0991" y2="499.1777" gradientTransform="matrix(0.9996 0.029 0.029 -0.9996 23.3264 683.5021)">
				<stop  offset="0.0613" style="stop-color:#756959"/>
				<stop  offset="0.135" style="stop-color:#8D7F4E"/>
				<stop  offset="0.1902" style="stop-color:#DDD7C8"/>
				<stop  offset="0.2515" style="stop-color:#827D75"/>
				<stop  offset="0.362" style="stop-color:#C9C49B"/>
				<stop  offset="0.4356" style="stop-color:#5C5A59"/>
				<stop  offset="0.5337" style="stop-color:#FFFFFF"/>
				<stop  offset="0.6196" style="stop-color:#5C5A59"/>
				<stop  offset="0.6871" style="stop-color:#C9C49B"/>
				<stop  offset="0.7607" style="stop-color:#827D75"/>
				<stop  offset="0.8221" style="stop-color:#DDD7C8"/>
				<stop  offset="0.8957" style="stop-color:#8D7F4E"/>
				<stop  offset="0.9693" style="stop-color:#756959"/>
			</linearGradient>
			<path fill="url(#SVGID_7_)" d="M313.057,191.998L313.057,191.998l-0.277,3.633l16.901,0.934l0.193-6.653
				c-0.881-0.14-8.646-0.922-13.032-0.8c-1.181,0.033-2.427,0.119-3.719,0.228L313.057,191.998L313.057,191.998z"/>
			
				<linearGradient id="SVGID_8_" gradientUnits="userSpaceOnUse" x1="245.2075" y1="456.1816" x2="323.729" y2="456.1816" gradientTransform="matrix(0.9996 0.029 0.029 -0.9996 23.3264 683.5021)">
				<stop  offset="0.0429" style="stop-color:#A4A1A2"/>
				<stop  offset="0.2638" style="stop-color:#C8C6C5"/>
				<stop  offset="0.7301" style="stop-color:#605E56"/>
				<stop  offset="1" style="stop-color:#5D5C59"/>
			</linearGradient>
			<path fill="url(#SVGID_8_)" d="M360.097,238.883l-9.391-4.311l-1.99-0.058l-13.044-0.378l-0.053,1.821l-0.004,0.149
				c-0.908,0.8-2.92,1.483-2.92,1.483s-10.167-0.406-19.08-0.552c-4.632-0.077-7.644-1.238-9.832-2.093l0.088-3.059l-22.109-0.641
				l3.489,6.851l19.204,0.106L360.097,238.883z"/>
			
				<linearGradient id="SVGID_9_" gradientUnits="userSpaceOnUse" x1="267.3257" y1="457.3594" x2="299.6206" y2="457.3594" gradientTransform="matrix(0.9996 0.029 0.029 -0.9996 23.3264 683.5021)">
				<stop  offset="0" style="stop-color:#8A8578"/>
				<stop  offset="0.3681" style="stop-color:#747472"/>
				<stop  offset="0.5276" style="stop-color:#E9E9E8"/>
				<stop  offset="0.6871" style="stop-color:#878483"/>
				<stop  offset="0.865" style="stop-color:#7D7B6E"/>
				<stop  offset="1" style="stop-color:#5D5C59"/>
			</linearGradient>
			<path fill="url(#SVGID_9_)" d="M313.823,237.485c8.913,0.147,18.914,0.549,18.914,0.549s2.401-0.764,3.311-1.623l0.066-2.263l0,0
				l-0.885-0.025l0.885,0.025l0,0l0.066-2.249l-1.164,0.706l1.164-0.706l-0.001,0.038L303.898,231l-0.132,4.53
				C305.513,236.342,308.364,237.394,313.823,237.485z"/>
			
				<linearGradient id="SVGID_10_" gradientUnits="userSpaceOnUse" x1="285.1123" y1="404.3633" x2="286.8972" y2="455.4767" gradientTransform="matrix(0.9996 0.029 0.029 -0.9996 23.3264 683.5021)">
				<stop  offset="0.1227" style="stop-color:#35373F"/>
				<stop  offset="1" style="stop-color:#000000"/>
			</linearGradient>
			<path fill="url(#SVGID_10_)" d="M336.207,238.558l-32.297-0.364l-18.658-0.1l-0.191,47.237l17.467,0.508l32.28,0.935l8.843,0.258
				l14.373,0.417l1.65-38.648l0.423-9.918L336.207,238.558z M346.906,282.921c-3.929-0.113-7.021-3.39-6.906-7.316
				c0.115-3.928,3.391-7.02,7.317-6.906c3.929,0.114,7.021,3.39,6.907,7.318C354.11,279.944,350.834,283.037,346.906,282.921z
				 M348.573,255.975c-3.928-0.115-7.02-3.391-6.906-7.319c0.114-3.928,3.39-7.021,7.319-6.906c3.927,0.115,7.019,3.392,6.905,7.319
				C355.777,252.997,352.501,256.089,348.573,255.975z"/>
			<path fill="#46494D" d="M348.573,255.975c3.928,0.114,7.204-2.978,7.318-6.906c0.114-3.928-2.979-7.205-6.905-7.319
				c-3.929-0.114-7.205,2.978-7.319,6.906C341.553,252.584,344.646,255.86,348.573,255.975z M347.694,246.875l2.728,0.079
				l1.038,2.317l-1.683,2.09l-2.211-0.063l-1.042-2.245L347.694,246.875z"/>
			<path fill="#46494D" d="M347.318,268.699c-3.927-0.114-7.203,2.978-7.317,6.906c-0.115,3.927,2.977,7.203,6.906,7.316
				c3.928,0.116,7.204-2.977,7.318-6.904C354.338,272.089,351.247,268.813,347.318,268.699z M347.858,278.399l-2.322-0.85
				l-0.715-2.368l1.984-1.872l2.374,0.904l0.287,2.666L347.858,278.399z"/>
			<polygon fill="#252627" points="349.777,251.362 351.46,249.271 350.422,246.955 347.694,246.875 346.524,249.054 
				347.566,251.299 			"/>
			<polygon fill="#2E2F2F" points="346.806,273.309 344.822,275.181 345.537,277.549 347.858,278.399 349.467,276.879 
				349.18,274.213 			"/>
			<polygon fill="none" stroke="#636363" stroke-miterlimit="10" points="313.265,196.088 312.988,196.081 313.09,200.444 
				313.565,201.5 313.62,201.5 313.259,200.332 			"/>
			<polygon fill="none" stroke="#636363" stroke-miterlimit="10" points="314.59,196.127 314.314,196.119 314.417,200.463 
				314.892,201.5 314.947,201.5 314.586,200.349 			"/>
			<polygon fill="none" stroke="#636363" stroke-width="0.4424" stroke-miterlimit="10" points="315.918,196.165 315.642,196.156 
				315.744,200.254 316.219,201.042 316.274,201.044 315.914,200.142 			"/>
			<polygon fill="none" stroke="#636363" stroke-width="0.4424" stroke-miterlimit="10" points="317.245,196.204 316.969,196.195 
				317.071,200.293 317.545,201.081 317.601,201.083 317.24,200.18 			"/>
			<polygon fill="none" stroke="#636363" stroke-width="0.4424" stroke-miterlimit="10" points="318.572,196.242 318.295,196.234 
				318.397,200.331 318.872,201.119 318.927,201.122 318.566,200.219 			"/>
			<polygon fill="none" stroke="#636363" stroke-width="0.4424" stroke-miterlimit="10" points="319.897,196.281 319.621,196.272 
				319.724,200.37 320.199,201.158 320.252,201.16 319.893,200.257 			"/>
			<polygon fill="none" stroke="#636363" stroke-width="0.4424" stroke-miterlimit="10" points="321.581,201.198 321.22,200.295 
				321.224,196.319 320.947,196.312 321.051,200.408 321.525,201.195 			"/>
			<polygon fill="none" stroke="#636363" stroke-miterlimit="10" points="322.72,200.6 323.075,196.445 322.779,196.401 
				322.546,200.495 322.105,201.5 322.165,201.5 			"/>
			<polygon fill="none" stroke="#636363" stroke-miterlimit="10" points="324.007,200.616 324.312,196.469 324.08,196.434 
				323.873,200.51 323.523,201.5 323.57,201.5 			"/>
			<polygon fill="none" stroke="#636363" stroke-width="0.4424" stroke-miterlimit="10" points="325.363,200.868 325.729,196.45 
				325.433,196.442 325.19,200.737 324.746,201.732 324.805,201.734 			"/>
			<polygon fill="none" stroke="#636363" stroke-width="0.4424" stroke-miterlimit="10" points="326.646,200.906 327.026,196.488 
				326.711,196.478 326.461,200.774 325.992,201.769 326.054,201.771 			"/>
			<polygon fill="none" stroke="#636363" stroke-miterlimit="10" points="327.997,200.788 328.337,196.447 328.073,196.479 
				327.843,200.639 327.444,201.5 327.498,201.5 			"/>
			<polygon fill="none" stroke="#636363" stroke-miterlimit="10" points="329.332,200.809 329.681,196.478 329.405,196.512 
				329.169,200.657 328.753,201.5 328.809,201.5 			"/>
			<polygon fill="none" stroke="#636363" stroke-width="0.4424" stroke-miterlimit="10" points="330.564,196.59 330.289,196.582 
				330.054,200.869 329.69,201.717 329.874,201.565 330.216,200.994 			"/>
			<polygon fill="none" stroke="#636363" stroke-width="0.4424" stroke-miterlimit="10" points="329.638,201.874 329.693,201.876 
				329.873,201.612 329.688,201.764 			"/>
			<g>
				<path fill="#5E626D" d="M301.476,222.964l0.876-0.307l3.572-0.449c0,0-1.161,0.181-0.981-0.672
					c0.138-0.639,0.692-0.285,0.812-0.681c0.179-0.591-1.134-1.341-1.134-1.341l-13.212-0.384l-9.805,9.97l-0.825,1.763l0.984,0.38
					l22.109,0.641l0.032-1.105l-2.608-1.625L301.476,222.964z"/>
				
					<linearGradient id="SVGID_11_" gradientUnits="userSpaceOnUse" x1="244.1567" y1="432.8555" x2="250.0454" y2="432.8555" gradientTransform="matrix(0.9996 0.029 0.029 -0.9996 23.3264 683.5021)">
					<stop  offset="0" style="stop-color:#9D9781"/>
					<stop  offset="0.9755" style="stop-color:#3F3C38"/>
				</linearGradient>
				<polygon fill="url(#SVGID_11_)" points="280.719,230.992 280.435,261.742 280.588,261.746 280.541,269.711 281.531,269.739 
					281.423,273.461 280.415,273.339 280.465,274.023 285.04,285.11 285.238,238.093 281.763,231.244 280.779,230.864 				"/>
			</g>
			<g>
				<path fill="none" d="M341.771,222.45L341.771,222.45c0,1.038-0.074,1.634-0.074,1.634S341.771,223.505,341.771,222.45z"/>
				
					<linearGradient id="SVGID_12_" gradientUnits="userSpaceOnUse" x1="273.0776" y1="472.7256" x2="293.8687" y2="472.7256" gradientTransform="matrix(0.9996 0.029 0.029 -0.9996 23.3264 683.5021)">
					<stop  offset="0" style="stop-color:#CAC2A9"/>
					<stop  offset="0.0173" style="stop-color:#C3BBA1"/>
					<stop  offset="0.0701" style="stop-color:#B2AB8D"/>
					<stop  offset="0.1304" style="stop-color:#A5A07F"/>
					<stop  offset="0.2044" style="stop-color:#9E9976"/>
					<stop  offset="0.3313" style="stop-color:#9C9774"/>
					<stop  offset="0.4847" style="stop-color:#B3B29E"/>
					<stop  offset="0.638" style="stop-color:#878570"/>
					<stop  offset="0.9509" style="stop-color:#6F6C5A"/>
				</linearGradient>
				<path fill="url(#SVGID_12_)" d="M330.686,222.938l0.077-2.664l0.103-3.538l-1.752-0.605l0.004-0.142
					c-2.226,0.427-6.21,0.348-7.793,0.359c-2.065,0.014-9.473-0.165-9.473-0.165l-0.442-0.012l-0.025,0.884l0.025-0.884
					l-1.326-0.038l-0.18,6.19L330.686,222.938z"/>
			</g>
			<path fill="#2B2B2B" d="M341.019,227.266c-0.037,1.253-1.229,2.233-2.114,2.208l-0.287-4.546
				C339.502,224.952,341.055,226.014,341.019,227.266z"/>
			
				<ellipse transform="matrix(0.0293 -0.9996 0.9996 0.0293 57.6456 511.951)" fill="#222321" cx="292.406" cy="226.296" rx="2.293" ry="2.073"/>
			<g>
				<path fill="#565147" d="M322.015,238.379l-2.021-4.957c-0.266,0.096-0.513,0.232-0.736,0.406l1.972,4.542L322.015,238.379z"/>
				<path fill="#434133" d="M323.132,238.39c0.408-0.567,0.642-1.292,0.613-2.078c-0.064-1.742-1.392-3.104-2.963-3.046
					c-0.276,0.011-0.54,0.067-0.788,0.157l2.021,4.957L323.132,238.39z"/>
				<path fill="#4F493F" d="M319.258,233.829c-0.763,0.591-1.247,1.584-1.205,2.694c0.026,0.689,0.252,1.318,0.611,1.824
					l2.566,0.023L319.258,233.829z"/>
			</g>
			<polyline fill="none" stroke="#3F424F" stroke-width="0.4424" points="359.077,262.772 285.238,259.799 280.501,256.448 			"/>
			<g>
				
					<linearGradient id="SVGID_13_" gradientUnits="userSpaceOnUse" x1="238.897" y1="415.9688" x2="238.897" y2="420.625" gradientTransform="matrix(0.9996 0.029 0.029 -0.9996 23.3264 683.5021)">
					<stop  offset="0.0429" style="stop-color:#4E4C45"/>
					<stop  offset="0.5399" style="stop-color:#9B9582"/>
					<stop  offset="0.8098" style="stop-color:#B0A992"/>
					<stop  offset="0.9755" style="stop-color:#ECE8DD"/>
				</linearGradient>
				<polygon fill="url(#SVGID_13_)" points="273.558,269.952 273.605,274.544 274.958,274.651 274.664,269.983 				"/>
				
					<linearGradient id="SVGID_14_" gradientUnits="userSpaceOnUse" x1="245.4019" y1="417.293" x2="245.4019" y2="421.0684" gradientTransform="matrix(0.9996 0.029 0.029 -0.9996 23.3264 683.5021)">
					<stop  offset="0.0429" style="stop-color:#4E4C45"/>
					<stop  offset="0.5399" style="stop-color:#9B9582"/>
					<stop  offset="0.8098" style="stop-color:#B0A992"/>
					<stop  offset="0.9755" style="stop-color:#ECE8DD"/>
				</linearGradient>
				<polygon fill="url(#SVGID_14_)" points="279.266,269.674 279.42,273.387 282.306,273.539 282.415,269.766 				"/>
				
					<linearGradient id="SVGID_15_" gradientUnits="userSpaceOnUse" x1="241.665" y1="415.6074" x2="241.665" y2="422.3945" gradientTransform="matrix(0.9996 0.029 0.029 -0.9996 23.3264 683.5021)">
					<stop  offset="0.0429" style="stop-color:#4E4C45"/>
					<stop  offset="0.5399" style="stop-color:#9B9582"/>
					<stop  offset="0.8098" style="stop-color:#B0A992"/>
					<stop  offset="0.9755" style="stop-color:#ECE8DD"/>
				</linearGradient>
				<polygon fill="url(#SVGID_15_)" points="279.69,268.359 274.494,268.209 274.44,270.066 274.85,274.515 274.947,275.012 
					279.405,274.842 279.421,273.333 279.749,269.916 				"/>
				
					<rect x="280.142" y="269.707" transform="matrix(-0.9996 -0.0276 0.0276 -0.9996 553.1406 550.5749)" fill="#4F4B46" width="0.443" height="3.54"/>
			</g>
			<g>
				
					<linearGradient id="SVGID_16_" gradientUnits="userSpaceOnUse" x1="238.9419" y1="428.5117" x2="238.9419" y2="444.5391" gradientTransform="matrix(0.9996 0.029 0.029 -0.9996 23.3264 683.5021)">
					<stop  offset="0.0613" style="stop-color:#5C5757"/>
					<stop  offset="0.1104" style="stop-color:#4F4B46"/>
					<stop  offset="0.1411" style="stop-color:#5C5757"/>
					<stop  offset="0.2454" style="stop-color:#676560"/>
					<stop  offset="0.3436" style="stop-color:#878575"/>
					<stop  offset="0.5092" style="stop-color:#696666"/>
					<stop  offset="0.5767" style="stop-color:#EFEFEF"/>
					<stop  offset="0.638" style="stop-color:#6B6C69"/>
					<stop  offset="0.8896" style="stop-color:#716F65"/>
					<stop  offset="1" style="stop-color:#FFFFFE"/>
				</linearGradient>
				<polygon fill="url(#SVGID_16_)" points="267.188,245.945 267.137,247.714 266.726,261.863 282.473,262.32 282.306,246.281 				
					"/>
				
					<rect x="278.434" y="246.273" transform="matrix(-0.9997 -0.0265 0.0265 -0.9997 550.4891 515.7536)" fill="#4F4B46" width="0.443" height="15.926"/>
			</g>
			<g>
				<polygon fill="none" points="312.77,175.052 312.161,175.035 311.904,183.878 312.203,184.33 312.775,184.346 312.459,183.821 
									"/>
				<polygon fill="none" points="312.205,188.755 312.65,188.62 312.75,185.23 312.308,185.218 				"/>
				
					<linearGradient id="SVGID_17_" gradientUnits="userSpaceOnUse" x1="272.6333" y1="512.4062" x2="294.6138" y2="512.4062" gradientTransform="matrix(0.9996 0.029 0.029 -0.9996 23.3264 683.5021)">
					<stop  offset="0.0613" style="stop-color:#D3D2CB"/>
					<stop  offset="0.1776" style="stop-color:#C4C3BF"/>
					<stop  offset="0.3284" style="stop-color:#B6B6B5"/>
					<stop  offset="0.4663" style="stop-color:#B2B2B2"/>
					<stop  offset="0.4673" style="stop-color:#B9B9B9"/>
					<stop  offset="0.4716" style="stop-color:#CFCFD0"/>
					<stop  offset="0.4765" style="stop-color:#E0E0E1"/>
					<stop  offset="0.4824" style="stop-color:#ECECEE"/>
					<stop  offset="0.4904" style="stop-color:#F3F3F5"/>
					<stop  offset="0.5092" style="stop-color:#F5F5F7"/>
					<stop  offset="0.524" style="stop-color:#F2F2F4"/>
					<stop  offset="0.5338" style="stop-color:#E9EAEB"/>
					<stop  offset="0.5423" style="stop-color:#DADBDC"/>
					<stop  offset="0.5498" style="stop-color:#C5C6C7"/>
					<stop  offset="0.5521" style="stop-color:#BDBEBF"/>
					<stop  offset="0.9387" style="stop-color:#A7A39E"/>
				</linearGradient>
				<path fill="url(#SVGID_17_)" d="M311.904,183.878l0.256-8.843l0.609,0.017l-0.311,8.769l0.316,0.525l19.623,0.569l0.412-9.448
					l-0.643-0.627c-2.464,0.058-6.694,0.138-9.382,0.059c-3.402-0.099-10.066-0.615-11.927-0.764l-0.043,1.531
					c0.442,0.011,0.071-0.003,0.11-0.004c-0.039,0.001,0.332,0.016-0.11,0.004l-0.114,3.89c0.442,0.011,0.072-0.001,0.11-0.003
					c-0.038,0.002,0.332,0.014-0.11,0.003l-0.096,3.33c0.442,0.012,0.072-0.001,0.111-0.002c-0.039,0.001,0.331,0.014-0.111,0.002
					l-0.028,0.953l0.43,0.455l1.196,0.036L311.904,183.878z"/>
				
					<linearGradient id="SVGID_18_" gradientUnits="userSpaceOnUse" x1="272.6333" y1="504.3418" x2="293.8687" y2="504.3418" gradientTransform="matrix(0.9996 0.029 0.029 -0.9996 23.3264 683.5021)">
					<stop  offset="0.0613" style="stop-color:#D3D2CB"/>
					<stop  offset="0.1776" style="stop-color:#C4C3BF"/>
					<stop  offset="0.3284" style="stop-color:#B6B6B5"/>
					<stop  offset="0.4663" style="stop-color:#B2B2B2"/>
					<stop  offset="0.4673" style="stop-color:#B9B9B9"/>
					<stop  offset="0.4716" style="stop-color:#CFCFD0"/>
					<stop  offset="0.4765" style="stop-color:#E0E0E1"/>
					<stop  offset="0.4824" style="stop-color:#ECECEE"/>
					<stop  offset="0.4904" style="stop-color:#F3F3F5"/>
					<stop  offset="0.5092" style="stop-color:#F5F5F7"/>
					<stop  offset="0.524" style="stop-color:#F2F2F4"/>
					<stop  offset="0.5338" style="stop-color:#E9EAEB"/>
					<stop  offset="0.5423" style="stop-color:#DADBDC"/>
					<stop  offset="0.5498" style="stop-color:#C5C6C7"/>
					<stop  offset="0.5521" style="stop-color:#BDBEBF"/>
					<stop  offset="0.9387" style="stop-color:#A7A39E"/>
				</linearGradient>
				<path fill="url(#SVGID_18_)" d="M312.65,188.62l-0.446,0.135l0.104-3.537l-0.442-0.013l-1.327-0.038l-0.08,2.732
					c0.442-0.003,0.409-0.019,0.628-0.025c-0.219,0.006-0.186,0.022-0.628,0.025l-0.037,1.247l2.764,0.081l-0.012,0.226
					c1.293-0.109,2.484-0.252,3.666-0.286c4.386-0.121,11.269,0.58,12.149,0.719l0.006-0.201l2.653,0.077l0.103-3.537l-0.135-0.446
					l-18.866-0.548L312.65,188.62z"/>
				
					<linearGradient id="SVGID_19_" gradientUnits="userSpaceOnUse" x1="272.7759" y1="518.5332" x2="293.9546" y2="518.5332" gradientTransform="matrix(0.9996 0.029 0.029 -0.9996 23.3264 683.5021)">
					<stop  offset="0.0613" style="stop-color:#D3D2CB"/>
					<stop  offset="0.1267" style="stop-color:#DEDDD8"/>
					<stop  offset="0.2699" style="stop-color:#F0F0ED"/>
					<stop  offset="0.4079" style="stop-color:#FBFBFB"/>
					<stop  offset="0.5337" style="stop-color:#FFFFFF"/>
					<stop  offset="0.9387" style="stop-color:#A7A39E"/>
				</linearGradient>
				<path fill="url(#SVGID_19_)" d="M332.167,174.84l-2.45-2.395l-2.432-0.07c0,0-2.703-0.285-3.865-0.319
					c-2.016-0.141-4.177-0.236-5.968-0.187c-1.246,0.035-2.666,0.124-4.029,0.242l-2.423,2v0.025c2,0.148,8.454,0.665,11.856,0.764
					C325.544,174.978,329.703,174.898,332.167,174.84z"/>
				<polygon fill="none" points="312.328,184.517 312.308,185.218 312.75,185.23 312.775,184.346 312.203,184.33 				"/>
				<polygon fill="#878689" points="332.398,184.916 311.67,184.313 311.866,185.205 331.617,185.778 331.55,185.554 				"/>
			</g>
			<g>
				<polygon fill="#7F7F7F" points="314.42,188.672 313.974,188.808 314.097,184.569 313.672,183.929 313.929,175.086 
					314.538,175.103 314.228,183.872 314.545,184.397 				"/>
				<polygon fill="#7F7F7F" points="316.189,188.723 315.742,188.858 315.865,184.62 315.441,183.981 315.699,175.137 
					316.308,175.154 315.997,183.923 316.313,184.449 				"/>
				<polygon fill="#7F7F7F" points="317.958,188.774 317.512,188.909 317.635,184.671 317.21,184.032 317.466,175.189 
					318.076,175.207 317.765,183.974 318.083,184.5 				"/>
				<polygon fill="#7F7F7F" points="319.727,188.825 319.279,188.96 319.402,184.722 318.979,184.083 319.236,175.24 
					319.845,175.257 319.534,184.026 319.851,184.551 				"/>
				<polygon fill="#7F7F7F" points="321.495,188.877 321.049,189.011 321.172,184.774 320.748,184.135 321.005,175.292 
					321.613,175.309 321.303,184.077 321.619,184.603 				"/>
				<polygon fill="#7F7F7F" points="323.264,188.928 322.818,189.062 322.94,184.825 322.517,184.186 322.773,175.342 
					323.382,175.36 323.072,184.129 323.388,184.653 				"/>
				<polygon fill="#7F7F7F" points="325.169,184.263 324.709,184.876 324.586,189.115 324.149,188.953 324.272,184.68 
					324.756,184.177 325.143,175.411 325.426,175.42 				"/>
				<polygon fill="#7F7F7F" points="326.497,184.3 326.036,184.916 325.913,189.154 325.475,188.993 325.6,184.719 326.108,184.216 
					326.571,175.453 326.753,175.458 				"/>
				<polygon fill="#7F7F7F" points="327.824,184.34 327.362,184.954 327.239,189.192 326.802,189.031 326.926,184.756 
					327.435,184.256 327.899,175.49 328.08,175.496 				"/>
				<polygon fill="#7F7F7F" points="329.149,184.378 328.689,184.993 328.566,189.23 328.128,189.07 328.252,184.795 
					328.761,184.293 329.225,175.53 329.407,175.534 				"/>
				<polygon fill="#7F7F7F" points="330.781,189.146 330.9,185.056 330.905,184.873 331.217,184.564 331.635,176 331.618,176 
					331.361,184.645 330.901,185.157 330.781,189.197 330.777,189.321 				"/>
				<polygon fill="#7F7F7F" points="329.579,184.834 330.15,184.334 330.566,175.569 330.733,175.574 330.476,184.417 
					330.017,185.031 329.893,189.268 329.455,189.108 				"/>
				<polygon fill="#7F7F7F" points="312.77,175.052 312.161,175.035 311.904,183.878 312.328,184.517 312.205,188.755 
					312.65,188.62 312.775,184.346 312.459,183.821 				"/>
				<polygon fill="#7F7F7F" points="314.538,175.103 313.929,175.086 313.672,183.929 314.097,184.569 313.974,188.808 
					314.42,188.672 314.545,184.397 314.228,183.872 				"/>
				<polygon fill="#7F7F7F" points="316.308,175.154 315.699,175.137 315.441,183.981 315.865,184.62 315.742,188.858 
					316.189,188.723 316.313,184.449 315.997,183.923 				"/>
				<polygon fill="#7F7F7F" points="318.076,175.207 317.466,175.189 317.21,184.032 317.635,184.671 317.512,188.909 
					317.958,188.774 318.083,184.5 317.765,183.974 				"/>
				<polygon fill="#7F7F7F" points="319.845,175.257 319.236,175.24 318.979,184.083 319.402,184.722 319.279,188.96 
					319.727,188.825 319.851,184.551 319.534,184.026 				"/>
				<polygon fill="#7F7F7F" points="321.613,175.309 321.005,175.292 320.748,184.135 321.172,184.774 321.049,189.011 
					321.495,188.877 321.619,184.603 321.303,184.077 				"/>
				<polygon fill="#7F7F7F" points="323.382,175.36 322.773,175.342 322.517,184.186 322.94,184.825 322.818,189.062 
					323.264,188.928 323.388,184.653 323.072,184.129 				"/>
				<polygon fill="#7F7F7F" points="328.761,184.293 328.252,184.795 328.128,189.07 328.566,189.23 328.689,184.993 
					329.149,184.378 329.407,175.534 329.225,175.53 				"/>
				<polygon fill="#7F7F7F" points="327.435,184.256 326.926,184.756 326.802,189.031 327.239,189.192 327.362,184.954 
					327.824,184.34 328.08,175.496 327.899,175.49 				"/>
				<polygon fill="#7F7F7F" points="326.108,184.216 325.6,184.719 325.475,188.993 325.913,189.154 326.036,184.916 326.497,184.3 
					326.753,175.458 326.571,175.453 				"/>
				<polygon fill="#7F7F7F" points="324.756,184.177 324.272,184.68 324.149,188.953 324.586,189.115 324.709,184.876 
					325.169,184.263 325.426,175.42 325.143,175.411 				"/>
				<polygon fill="#7F7F7F" points="330.017,185.031 330.476,184.417 330.733,175.574 330.566,175.569 330.15,184.334 
					329.579,184.834 329.455,189.108 329.893,189.268 				"/>
				<polygon fill="#7F7F7F" points="331.618,176 331.635,176 331.217,184.564 330.906,184.972 330.9,185.107 331.361,184.667 				
					"/>
			</g>
		</g>
		
			<radialGradient id="SVGID_20_" cx="363.4033" cy="510.7568" r="89.6" gradientTransform="matrix(0.9996 0.029 0.0488 -1.6819 13.2559 1030.5358)" gradientUnits="userSpaceOnUse">
			<stop  offset="0.9509" style="stop-color:#292A29"/>
			<stop  offset="0.9939" style="stop-color:#FFFFFF"/>
		</radialGradient>
		<path fill="url(#SVGID_20_)" d="M456.954,66.16c-17.552-20.425-26.178-28.199-44.933-30.072
			c-18.755-1.872-44.483,7.783-56.625,22.035c-0.511,0.601-1.041,1.227-1.587,1.875c-1.482,1.765-3.08,3.717-4.749,5.895
			c-1.121,1.463-2.272,3.028-3.443,4.705c-4.514,6.471-9.293,14.625-13.539,25.124c-0.392,0.969-0.779,1.961-1.162,2.972
			c-0.049,0.127-0.097,0.254-0.145,0.382c0.001,0.233-0.087,0.434-0.223,0.604c-0.502,1.355-0.995,2.747-1.476,4.177
			c-0.304,0.898-0.602,1.807-0.897,2.736c-0.277,0.876-0.548,1.77-0.817,2.673c-0.334,1.124-0.664,2.269-0.983,3.437
			c-0.268,0.977-0.531,1.975-0.788,2.983c-0.259,1.013-0.513,2.037-0.76,3.081c-0.222,0.945-0.44,1.909-0.653,2.881
			c-0.238,1.085-0.471,2.188-0.695,3.306c-0.196,0.976-0.387,1.961-0.572,2.962c-0.205,1.099-0.399,2.218-0.589,3.349
			c-0.181,1.08-0.358,2.173-0.526,3.282c-0.131,0.86-0.258,1.728-0.38,2.605c-0.16,1.13-0.311,2.276-0.455,3.437
			c-0.103,0.819-0.201,1.643-0.296,2.476c-0.1,0.879-0.196,1.765-0.288,2.66c-0.103,1.011-0.201,2.035-0.295,3.068
			c-0.096,1.066-0.187,2.146-0.271,3.236c-0.077,1.002-0.15,2.015-0.218,3.036c-0.07,1.051-0.133,2.111-0.192,3.182
			c-0.057,1.059-0.11,2.128-0.156,3.208c-0.043,0.979-0.082,1.967-0.114,2.965l-0.051,1.525l4.31,0.125l0.813,0.024l1.953,0.055
			c0,0,0.005-0.566,0.021-1.398c-0.196-0.019,0.183-0.101,0.377-0.081c0.014-0.724,0.451-1.747,0.451-3.006v-0.006v-0.003
			c0-0.888-0.438-1.65-0.401-2.65h-0.113c0.039,0,0.037-3,0.09-4h-0.087l0.211,0.23c0.029-0.979,0.301-1.764,0.301-2.843v-0.009
			v-0.004c0-1.918,0.125-3.981,0.312-6.153c0.018,0.001-0.072,0.201-0.054,0.202c0.075-0.864,0.051-1.424,0.136-2.424h0.005h0.002
			c0.262-3,1.018-9.31,1.027-9.305c0.122-0.916,0.684-4.896,0.847-5.918c0.139-0.87,0.285-1.792,0.437-2.664
			c1.712-9.817,4.25-19.634,8.012-26.987c3.634-7.106,7.783-14.76,12.763-22.045c10.609-15.519,24.994-29.421,46.258-33.021
			c31.243-5.288,56.473,17.458,65.322,48.032c0.721,2.49,1.394,4.996,2.021,7.5l6.557-0.153
			C467.571,85.902,463.191,73.418,456.954,66.16z"/>
	</g>
	
		<radialGradient id="SVGID_21_" cx="305.7129" cy="394.1279" r="219.8463" gradientTransform="matrix(0.9996 0.029 0.0488 -1.6819 13.5024 1022.0319)" gradientUnits="userSpaceOnUse">
		<stop  offset="0.9509" style="stop-color:#292A29"/>
		<stop  offset="0.9939" style="stop-color:#FFFFFF"/>
	</radialGradient>
	<path fill="url(#SVGID_21_)" d="M477.728,181.689c-0.235-6.569-1.508-58.577-7.084-83.138l-6.556,0.151
		c7.088,28.227,8.489,80.29,8.312,86.383c-0.176,6.003,3.518,389.44,2.959,402.392l4.778,2.03
		C480.137,589.507,478.096,191.88,477.728,181.689z"/>
</g>
</svg>
