<?xml version="1.0" encoding="utf-8"?>
<!-- Generator: Adobe Illustrator 15.0.0, SVG Export Plug-In . SVG Version: 6.00 Build 0)  -->
<!DOCTYPE svg PUBLIC "-//W3C//DTD SVG 1.1//EN" "http://www.w3.org/Graphics/SVG/1.1/DTD/svg11.dtd">
<svg version="1.1" id="Layer_1" xmlns="http://www.w3.org/2000/svg" xmlns:xlink="http://www.w3.org/1999/xlink" x="0px" y="0px"
	 width="800px" height="600px" viewBox="0 0 800 600" enable-background="new 0 0 800 600" xml:space="preserve">
<g>
	
		<linearGradient id="SVGID_1_" gradientUnits="userSpaceOnUse" x1="2512.0703" y1="2707.8828" x2="2512.0703" y2="2691.6504" gradientTransform="matrix(-1.0473 0 0 -1.0473 3048.3899 2926.4661)">
		<stop  offset="0" style="stop-color:#A6A699"/>
		<stop  offset="0.2885" style="stop-color:#A1A192"/>
		<stop  offset="1" style="stop-color:#9F9F90"/>
	</linearGradient>
	<polygon fill="url(#SVGID_1_)" points="185.326,90.5 649.64,90.5 670.404,107.5 164.596,107.5 	"/>
	
		<linearGradient id="SVGID_2_" gradientUnits="userSpaceOnUse" x1="459.5" y1="435.5" x2="459.5" y2="101.5005" gradientTransform="matrix(1 0 0 1 -42 6)">
		<stop  offset="0" style="stop-color:#A6A699"/>
		<stop  offset="0.0119" style="stop-color:#B2B2A8"/>
		<stop  offset="0.0354" style="stop-color:#C3C4BE"/>
		<stop  offset="0.0627" style="stop-color:#D1D2D0"/>
		<stop  offset="0.0959" style="stop-color:#DBDCDC"/>
		<stop  offset="0.141" style="stop-color:#E0E1E3"/>
		<stop  offset="0.2515" style="stop-color:#E2E3E5"/>
		<stop  offset="0.5762" style="stop-color:#E0E1E3"/>
		<stop  offset="0.6748" style="stop-color:#DCDDDE"/>
		<stop  offset="0.7403" style="stop-color:#D8D9D9"/>
		<stop  offset="0.822" style="stop-color:#CCCDC9"/>
		<stop  offset="0.9119" style="stop-color:#B8B8B0"/>
		<stop  offset="1" style="stop-color:#9F9F90"/>
	</linearGradient>
	<rect x="164.5" y="107.5" fill="url(#SVGID_2_)" width="506" height="334"/>
	<rect x="264.5" y="163.5" fill="#2D0E11" width="315" height="73"/>
	<rect x="514.5" y="164.5" fill="#470515" stroke="#231F20" stroke-width="2" width="43" height="68"/>
	<rect x="466.5" y="164.5" fill="#470515" stroke="#231F20" stroke-width="2" width="48" height="68"/>
	<rect x="423.5" y="164.5" fill="#470515" stroke="#231F20" stroke-width="2" width="43" height="68"/>
	<rect x="377.5" y="164.5" fill="#470515" stroke="#231F20" stroke-width="2" width="46" height="68"/>
	<rect x="331.5" y="164.5" fill="#470515" stroke="#231F20" stroke-width="2" width="46" height="68"/>
	<rect x="285.5" y="164.5" fill="#470515" stroke="#231F20" stroke-width="2" width="46" height="68"/>
	<rect x="222.5" y="269.5" fill="#42404F" width="405" height="4"/>
	<rect x="222.5" y="295.5" fill="#42404F" width="405" height="5"/>
	<rect x="222.5" y="281.5" fill="#42404F" width="187" height="4"/>
	<rect x="434.5" y="281.5" fill="#42404F" width="193" height="4"/>
	
		<radialGradient id="SVGID_3_" cx="460.6338" cy="273.5107" r="14.6042" gradientTransform="matrix(1 0 0 1 -42 6)" gradientUnits="userSpaceOnUse">
		<stop  offset="0" style="stop-color:#CEBDB1"/>
		<stop  offset="0.0638" style="stop-color:#C1B2A6"/>
		<stop  offset="0.1813" style="stop-color:#9F9489"/>
		<stop  offset="0.3396" style="stop-color:#69635A"/>
		<stop  offset="0.5153" style="stop-color:#24261F"/>
	</radialGradient>
	<circle fill="url(#SVGID_3_)" cx="422.644" cy="284.058" r="6.663"/>
	<g>
		<path fill="none" stroke="#5CB3C8" stroke-width="3" d="M662,235.971c0,5.539-4.49,10.029-10.028,10.029H188.028
			C182.49,246,178,241.51,178,235.971v-69.942c0-5.539,4.49-10.029,10.028-10.029h463.943c5.538,0,10.028,4.49,10.028,10.029
			L662,235.971L662,235.971z"/>
	</g>
	<g>
		<path fill="none" stroke="#5CB3C8" stroke-width="2" d="M423.5,404.574c0,3.825-3.102,6.926-6.927,6.926H199.427
			c-3.826,0-6.927-3.101-6.927-6.926v-76.148c0-3.825,3.101-6.926,6.927-6.926h217.146c3.825,0,6.927,3.101,6.927,6.926V404.574z"/>
	</g>
	<g>
		<path fill="none" stroke="#5CB3C8" stroke-width="2" d="M654.5,404.574c0,3.825-3.101,6.926-6.926,6.926H430.426
			c-3.825,0-6.926-3.101-6.926-6.926v-76.148c0-3.825,3.101-6.926,6.926-6.926h217.148c3.825,0,6.926,3.101,6.926,6.926V404.574z"/>
	</g>
	<rect x="216.5" y="358.231" fill="#1F82FF" width="25" height="25"/>
	<rect x="288.5" y="358.231" fill="#BF0D00" width="26" height="25"/>
	<rect x="363.5" y="358.231" fill="#FF8900" width="25" height="25"/>
	<rect x="460.5" y="358.23" fill="#222525" width="26" height="25"/>
	<rect x="535.5" y="358.23" fill="#222525" width="25" height="25"/>
	<rect x="610.5" y="358.23" fill="#222525" width="25" height="25"/>
	<g>
		<path d="M588.124,168.656l0.798,0.2c-0.166,0.656-0.467,1.156-0.9,1.5c-0.436,0.344-0.966,0.516-1.596,0.516
			c-0.647,0-1.176-0.131-1.585-0.397c-0.406-0.265-0.719-0.647-0.929-1.15c-0.215-0.502-0.32-1.04-0.32-1.617
			c0-0.627,0.12-1.174,0.36-1.642c0.239-0.467,0.581-0.824,1.022-1.064c0.443-0.245,0.934-0.367,1.464-0.367
			c0.604,0,1.109,0.154,1.521,0.461c0.41,0.308,0.697,0.739,0.86,1.295l-0.788,0.187c-0.14-0.439-0.344-0.759-0.606-0.959
			c-0.266-0.198-0.602-0.3-1.005-0.3c-0.464,0-0.85,0.112-1.162,0.334c-0.312,0.221-0.528,0.52-0.656,0.893
			c-0.125,0.376-0.188,0.761-0.188,1.158c0,0.514,0.075,0.962,0.222,1.344c0.151,0.381,0.383,0.668,0.699,0.856
			c0.313,0.19,0.656,0.285,1.022,0.285c0.447,0,0.825-0.129,1.136-0.388C587.805,169.547,588.015,169.162,588.124,168.656z"/>
		<path d="M589.663,167.833c0-1,0.269-1.784,0.808-2.351c0.536-0.564,1.229-0.848,2.079-0.848c0.559,0,1.062,0.132,1.507,0.399
			c0.446,0.265,0.787,0.636,1.021,1.113c0.234,0.474,0.353,1.014,0.353,1.618c0,0.611-0.124,1.158-0.37,1.642
			c-0.246,0.482-0.598,0.846-1.049,1.095c-0.453,0.249-0.938,0.373-1.464,0.373c-0.566,0-1.075-0.138-1.521-0.411
			c-0.447-0.273-0.785-0.647-1.019-1.123C589.778,168.862,589.663,168.363,589.663,167.833z M590.486,167.847
			c0,0.727,0.194,1.297,0.586,1.716c0.391,0.419,0.881,0.627,1.472,0.627c0.599,0,1.096-0.21,1.481-0.633
			c0.389-0.423,0.584-1.022,0.584-1.798c0-0.49-0.086-0.919-0.25-1.285c-0.166-0.366-0.409-0.65-0.729-0.853
			c-0.32-0.2-0.678-0.302-1.075-0.302c-0.562,0-1.05,0.194-1.458,0.583C590.691,166.29,590.486,166.938,590.486,167.847z"/>
		<path d="M600.417,164.741h0.795v3.482c0,0.607-0.067,1.089-0.204,1.445c-0.138,0.356-0.385,0.646-0.741,0.871
			c-0.356,0.223-0.83,0.334-1.408,0.334c-0.565,0-1.026-0.097-1.387-0.292c-0.358-0.194-0.618-0.477-0.77-0.846
			c-0.156-0.369-0.231-0.873-0.231-1.512v-3.482h0.798v3.478c0,0.524,0.051,0.911,0.146,1.158c0.099,0.249,0.264,0.439,0.504,0.575
			c0.236,0.133,0.526,0.202,0.868,0.202c0.587,0,1.004-0.134,1.254-0.401c0.25-0.265,0.376-0.777,0.376-1.535V164.741
			L600.417,164.741z"/>
		<path d="M602.534,170.77v-6.028h0.816l3.167,4.733v-4.733h0.768v6.028h-0.819l-3.167-4.737v4.737H602.534z"/>
		<path d="M610.16,170.77v-5.318h-1.986v-0.71h4.78v0.71h-1.996v5.318H610.16z"/>
		<path d="M613.5,168.832l0.753-0.064c0.035,0.302,0.118,0.548,0.249,0.741c0.13,0.194,0.332,0.351,0.605,0.47
			c0.273,0.12,0.584,0.178,0.925,0.178c0.306,0,0.575-0.044,0.807-0.136c0.235-0.091,0.408-0.215,0.522-0.37
			c0.11-0.16,0.17-0.33,0.17-0.517c0-0.19-0.058-0.356-0.165-0.498c-0.108-0.14-0.289-0.259-0.542-0.354
			c-0.162-0.063-0.521-0.162-1.074-0.293c-0.555-0.134-0.939-0.259-1.164-0.377c-0.286-0.149-0.503-0.34-0.643-0.562
			c-0.144-0.223-0.217-0.474-0.217-0.749c0-0.306,0.092-0.589,0.264-0.854c0.172-0.265,0.426-0.466,0.757-0.604
			c0.331-0.137,0.698-0.206,1.104-0.206c0.447,0,0.844,0.073,1.185,0.219c0.342,0.142,0.604,0.354,0.789,0.633
			c0.183,0.28,0.281,0.597,0.296,0.952l-0.767,0.057c-0.039-0.381-0.181-0.67-0.416-0.864c-0.236-0.194-0.589-0.292-1.052-0.292
			c-0.482,0-0.837,0.089-1.057,0.265c-0.22,0.176-0.331,0.391-0.331,0.64c0,0.216,0.077,0.395,0.235,0.537
			c0.149,0.138,0.553,0.281,1.2,0.427c0.647,0.148,1.095,0.277,1.334,0.387c0.353,0.16,0.612,0.366,0.78,0.613
			c0.166,0.249,0.249,0.534,0.249,0.858c0,0.322-0.092,0.623-0.273,0.907c-0.185,0.284-0.447,0.504-0.792,0.662
			c-0.347,0.158-0.73,0.237-1.162,0.237c-0.547,0-1.004-0.079-1.373-0.237c-0.368-0.162-0.657-0.4-0.868-0.72
			C613.621,169.596,613.511,169.235,613.5,168.832z"/>
		<path d="M585.357,184.809v-5.318h-1.986v-0.71h4.779v0.71h-1.996v5.318H585.357z"/>
		<path d="M589.104,184.809v-6.029h0.8v6.029H589.104z"/>
		<path d="M591.284,184.809v-6.029h1.203l1.427,4.269c0.132,0.397,0.227,0.695,0.285,0.891c0.067-0.218,0.177-0.541,0.322-0.966
			l1.441-4.194h1.075v6.029h-0.771v-5.047l-1.753,5.047h-0.721l-1.743-5.132v5.132H591.284z"/>
		<path d="M598.344,184.809v-6.029h4.358v0.71h-3.562v1.848h3.337v0.707h-3.337v2.053h3.701v0.71L598.344,184.809L598.344,184.809z"
			/>
		<path d="M583.835,198.85v-6.031h2.674c0.538,0,0.946,0.055,1.229,0.162c0.274,0.109,0.502,0.302,0.67,0.575
			c0.166,0.275,0.248,0.577,0.248,0.909c0,0.427-0.139,0.788-0.414,1.083c-0.277,0.292-0.705,0.48-1.284,0.559
			c0.213,0.101,0.373,0.203,0.482,0.3c0.23,0.214,0.451,0.482,0.66,0.802l1.05,1.642h-1.006l-0.795-1.255
			c-0.233-0.362-0.428-0.638-0.577-0.83c-0.15-0.192-0.286-0.326-0.402-0.403c-0.12-0.077-0.242-0.132-0.365-0.16
			c-0.092-0.02-0.239-0.03-0.444-0.03h-0.926v2.678L583.835,198.85L583.835,198.85z M584.633,195.481h1.717
			c0.361,0,0.648-0.038,0.855-0.113c0.205-0.075,0.361-0.196,0.469-0.362c0.104-0.166,0.159-0.346,0.159-0.541
			c0-0.286-0.104-0.521-0.312-0.703c-0.206-0.184-0.532-0.277-0.979-0.277h-1.908V195.481L584.633,195.481z"/>
		<path d="M589.246,198.85l2.312-6.031h0.86l2.468,6.031h-0.908l-0.702-1.826h-2.521l-0.663,1.826H589.246z M590.985,196.374h2.042
			l-0.629-1.67c-0.19-0.508-0.337-0.925-0.43-1.251c-0.076,0.387-0.186,0.771-0.323,1.152L590.985,196.374z"/>
		<path d="M596.433,198.85v-5.318h-1.984v-0.713h4.778v0.713h-1.992v5.318H596.433z"/>
		<path d="M600.061,198.85v-6.031h4.36v0.713h-3.562v1.846h3.337v0.709h-3.337v2.053h3.701v0.71H600.061L600.061,198.85z"/>
		<path d="M583.847,212.89v-6.029h0.8v2.476h3.134v-2.476h0.8v6.029h-0.8v-2.843h-3.134v2.843H583.847z"/>
		<path d="M590.041,212.89v-6.029h0.798v6.029H590.041z"/>
		<path d="M595.068,210.525v-0.708l2.555-0.004v2.239c-0.393,0.312-0.798,0.546-1.213,0.707c-0.417,0.156-0.844,0.234-1.285,0.234
			c-0.592,0-1.129-0.125-1.613-0.38c-0.482-0.253-0.849-0.619-1.096-1.099c-0.246-0.479-0.37-1.016-0.37-1.609
			c0-0.585,0.121-1.133,0.368-1.642c0.245-0.51,0.598-0.887,1.059-1.134c0.46-0.247,0.99-0.371,1.596-0.371
			c0.435,0,0.826,0.071,1.181,0.212c0.352,0.142,0.629,0.338,0.827,0.589c0.203,0.253,0.354,0.581,0.458,0.988l-0.719,0.196
			c-0.093-0.308-0.203-0.548-0.339-0.723c-0.135-0.176-0.325-0.315-0.575-0.421c-0.248-0.107-0.525-0.16-0.831-0.16
			c-0.365,0-0.683,0.057-0.946,0.167c-0.265,0.111-0.479,0.259-0.644,0.439c-0.164,0.18-0.289,0.378-0.381,0.598
			c-0.153,0.372-0.229,0.777-0.229,1.212c0,0.537,0.093,0.986,0.277,1.349c0.186,0.362,0.455,0.631,0.807,0.808
			c0.354,0.174,0.731,0.261,1.128,0.261c0.346,0,0.686-0.064,1.013-0.198c0.329-0.133,0.578-0.275,0.749-0.425v-1.124
			L595.068,210.525L595.068,210.525z"/>
		<path d="M598.825,212.89v-6.029h0.796v2.476h3.135v-2.476h0.799v6.029h-0.799v-2.843h-3.135v2.843H598.825z"/>
		<path d="M608.947,212.89l-2.336-6.029h0.86l1.566,4.381c0.126,0.35,0.229,0.68,0.313,0.988c0.098-0.33,0.205-0.66,0.327-0.988
			l1.63-4.381h0.815l-2.362,6.029H608.947z"/>
		<path d="M612.6,209.954c0-1,0.271-1.786,0.807-2.353c0.539-0.564,1.229-0.848,2.082-0.848c0.557,0,1.059,0.133,1.507,0.399
			c0.447,0.267,0.786,0.638,1.021,1.113c0.235,0.474,0.352,1.014,0.352,1.618c0,0.611-0.121,1.16-0.368,1.642
			s-0.597,0.848-1.048,1.095c-0.454,0.249-0.941,0.372-1.466,0.372c-0.567,0-1.075-0.135-1.521-0.411
			c-0.448-0.275-0.786-0.649-1.017-1.124C612.715,210.984,612.6,210.482,612.6,209.954z M613.423,209.966
			c0,0.727,0.195,1.299,0.585,1.716c0.394,0.419,0.881,0.627,1.471,0.627c0.603,0,1.097-0.21,1.483-0.633
			c0.388-0.421,0.581-1.02,0.581-1.798c0-0.492-0.083-0.919-0.249-1.285c-0.166-0.366-0.408-0.65-0.728-0.853
			c-0.319-0.2-0.679-0.302-1.076-0.302c-0.564,0-1.049,0.195-1.457,0.581C613.626,208.411,613.423,209.059,613.423,209.966z"/>
		<path d="M619.36,212.89v-6.029h0.8v5.318h2.969v0.711H619.36L619.36,212.89z"/>
		<path d="M624.989,212.89v-5.318h-1.986v-0.71h4.78v0.71h-1.996v5.318H624.989z"/>
		<path d="M627.312,212.89l2.314-6.029h0.86l2.466,6.029h-0.906l-0.705-1.826h-2.521l-0.662,1.826H627.312z M629.052,210.414h2.046
			l-0.631-1.67c-0.188-0.506-0.334-0.923-0.428-1.251c-0.076,0.387-0.184,0.771-0.325,1.152L629.052,210.414z"/>
		<path d="M636.417,210.525v-0.708l2.552-0.004v2.239c-0.393,0.312-0.795,0.546-1.214,0.707c-0.415,0.156-0.843,0.234-1.282,0.234
			c-0.593,0-1.131-0.125-1.611-0.38c-0.483-0.253-0.852-0.619-1.099-1.099c-0.247-0.479-0.37-1.016-0.37-1.609
			c0-0.585,0.123-1.133,0.366-1.642c0.247-0.51,0.604-0.887,1.062-1.134s0.991-0.371,1.591-0.371c0.438,0,0.83,0.071,1.183,0.212
			c0.354,0.142,0.629,0.338,0.83,0.589c0.2,0.253,0.354,0.581,0.455,0.988l-0.719,0.196c-0.089-0.308-0.202-0.548-0.336-0.723
			c-0.136-0.176-0.327-0.315-0.576-0.421c-0.25-0.107-0.527-0.16-0.83-0.16c-0.366,0-0.681,0.057-0.946,0.167
			c-0.267,0.111-0.479,0.259-0.645,0.439c-0.165,0.18-0.291,0.378-0.382,0.598c-0.154,0.372-0.229,0.777-0.229,1.212
			c0,0.537,0.094,0.986,0.275,1.349c0.187,0.362,0.456,0.631,0.81,0.808c0.354,0.174,0.729,0.261,1.128,0.261
			c0.349,0,0.685-0.064,1.012-0.198c0.33-0.133,0.578-0.275,0.749-0.425v-1.124L636.417,210.525L636.417,210.525z"/>
		<path d="M640.162,212.89v-6.029h4.359v0.71h-3.562v1.848h3.335v0.707h-3.335v2.053h3.701v0.711H640.162z"/>
		<path d="M583.161,226.931l2.313-6.031h0.86l2.468,6.031h-0.908l-0.703-1.826h-2.521l-0.662,1.826H583.161z M584.901,224.455h2.043
			l-0.63-1.67c-0.189-0.508-0.334-0.925-0.429-1.251c-0.077,0.387-0.185,0.771-0.322,1.152L584.901,224.455z"/>
		<path d="M589.408,226.931V220.9h0.797v5.32h2.973v0.711H589.408z"/>
		<path d="M593.465,226.931l2.313-6.031h0.858l2.472,6.031h-0.91l-0.703-1.826h-2.521l-0.66,1.826H593.465z M595.204,224.455h2.044
			l-0.629-1.67c-0.192-0.508-0.335-0.925-0.428-1.251c-0.077,0.387-0.188,0.771-0.325,1.152L595.204,224.455z"/>
		<path d="M599.757,226.931V220.9h2.675c0.538,0,0.944,0.055,1.229,0.162c0.278,0.109,0.501,0.301,0.67,0.573
			c0.167,0.277,0.251,0.579,0.251,0.911c0,0.427-0.141,0.788-0.415,1.081c-0.277,0.294-0.707,0.482-1.283,0.559
			c0.21,0.103,0.369,0.202,0.481,0.302c0.229,0.212,0.454,0.481,0.662,0.802l1.049,1.642h-1.005l-0.798-1.255
			c-0.234-0.362-0.426-0.64-0.576-0.83c-0.15-0.192-0.286-0.326-0.405-0.405c-0.119-0.075-0.24-0.129-0.364-0.158
			c-0.091-0.02-0.235-0.03-0.441-0.03h-0.927v2.678L599.757,226.931L599.757,226.931z M600.557,223.562h1.716
			c0.362,0,0.648-0.039,0.854-0.113c0.205-0.077,0.36-0.196,0.468-0.362c0.107-0.167,0.162-0.346,0.162-0.541
			c0-0.285-0.104-0.52-0.312-0.704c-0.207-0.182-0.535-0.275-0.98-0.275h-1.908V223.562z"/>
		<path d="M605.804,226.931V220.9h1.2l1.43,4.27c0.131,0.398,0.229,0.697,0.287,0.893c0.068-0.219,0.178-0.541,0.319-0.965
			l1.446-4.197h1.071v6.031h-0.77v-5.047l-1.752,5.047h-0.722l-1.743-5.134v5.134L605.804,226.931L605.804,226.931z"/>
		<path d="M615.188,226.931V220.9h2.274c0.401,0,0.704,0.02,0.917,0.059c0.296,0.049,0.545,0.142,0.743,0.28
			c0.2,0.14,0.362,0.333,0.482,0.583s0.186,0.524,0.186,0.823c0,0.513-0.164,0.946-0.49,1.302c-0.327,0.354-0.917,0.532-1.769,0.532
			h-1.547v2.452H615.188L615.188,226.931z M615.984,223.769h1.559c0.518,0,0.882-0.098,1.099-0.29
			c0.219-0.192,0.327-0.461,0.327-0.81c0-0.253-0.063-0.468-0.192-0.648c-0.126-0.18-0.294-0.298-0.503-0.356
			c-0.135-0.036-0.385-0.052-0.744-0.052h-1.543L615.984,223.769L615.984,223.769z"/>
		<path d="M620.562,223.993c0-1.002,0.269-1.784,0.807-2.35c0.537-0.567,1.229-0.85,2.081-0.85c0.558,0,1.059,0.133,1.507,0.4
			c0.445,0.265,0.786,0.636,1.021,1.112c0.233,0.476,0.35,1.016,0.35,1.62c0,0.611-0.123,1.158-0.368,1.64
			c-0.247,0.481-0.597,0.848-1.048,1.097c-0.454,0.249-0.941,0.372-1.466,0.372c-0.567,0-1.075-0.138-1.522-0.413
			c-0.447-0.273-0.785-0.648-1.016-1.122C620.68,225.023,620.562,224.521,620.562,223.993z M621.385,224.005
			c0,0.727,0.195,1.3,0.588,1.719c0.391,0.417,0.881,0.627,1.471,0.627c0.602,0,1.096-0.212,1.48-0.636
			c0.389-0.421,0.583-1.02,0.583-1.795c0-0.492-0.083-0.921-0.251-1.286c-0.164-0.367-0.406-0.652-0.725-0.852
			c-0.32-0.201-0.678-0.302-1.076-0.302c-0.566,0-1.052,0.194-1.458,0.581C621.588,222.451,621.385,223.098,621.385,224.005z"/>
		<path d="M627.492,226.931V220.9h0.8v6.031H627.492z"/>
		<path d="M629.689,226.931V220.9h0.816l3.169,4.735V220.9h0.767v6.031h-0.818l-3.167-4.739v4.739H629.689z"/>
		<path d="M637.315,226.931v-5.318h-1.985V220.9h4.778v0.713h-1.996v5.318H637.315L637.315,226.931z"/>
	</g>
	<g>
		<g>
			<g>
				<path d="M449.352,395.096v-8.625h2.97c0.671,0,1.182,0.04,1.534,0.126c0.493,0.111,0.915,0.322,1.262,0.617
					c0.458,0.385,0.799,0.874,1.021,1.474c0.228,0.601,0.342,1.28,0.342,2.051c0,0.656-0.078,1.234-0.234,1.743
					c-0.148,0.507-0.347,0.924-0.584,1.252c-0.24,0.334-0.503,0.594-0.787,0.781c-0.282,0.193-0.626,0.335-1.031,0.437
					c-0.398,0.097-0.863,0.147-1.385,0.147h-3.106L449.352,395.096L449.352,395.096z M450.491,394.079h1.841
					c0.566,0,1.014-0.055,1.341-0.162c0.323-0.104,0.578-0.256,0.773-0.445c0.269-0.27,0.479-0.634,0.631-1.091
					c0.151-0.459,0.227-1.011,0.227-1.663c0-0.9-0.149-1.595-0.446-2.078c-0.297-0.482-0.653-0.811-1.075-0.978
					c-0.311-0.113-0.802-0.172-1.479-0.172h-1.812L450.491,394.079L450.491,394.079z"/>
				<path d="M458.245,395.096v-8.625h1.14v8.625H458.245z"/>
				<path d="M461.005,392.325l1.078-0.097c0.053,0.433,0.173,0.785,0.357,1.062c0.187,0.275,0.475,0.499,0.867,0.672
					c0.39,0.172,0.833,0.257,1.321,0.257c0.437,0,0.824-0.064,1.153-0.194c0.336-0.131,0.584-0.308,0.746-0.533
					s0.243-0.472,0.243-0.737c0-0.27-0.081-0.507-0.237-0.71c-0.153-0.202-0.411-0.37-0.773-0.505
					c-0.234-0.093-0.743-0.232-1.537-0.425c-0.793-0.19-1.349-0.37-1.663-0.535c-0.413-0.215-0.722-0.485-0.92-0.805
					c-0.203-0.321-0.308-0.678-0.308-1.073c0-0.436,0.126-0.841,0.375-1.218c0.245-0.382,0.605-0.671,1.08-0.865
					c0.476-0.196,1.003-0.294,1.584-0.294c0.64,0,1.201,0.104,1.688,0.309c0.492,0.206,0.866,0.51,1.13,0.91
					c0.263,0.399,0.398,0.853,0.425,1.36l-1.096,0.081c-0.062-0.543-0.26-0.957-0.601-1.234c-0.338-0.279-0.838-0.418-1.503-0.418
					c-0.69,0-1.192,0.127-1.509,0.379c-0.318,0.254-0.476,0.562-0.476,0.917c0,0.312,0.112,0.564,0.335,0.765
					c0.222,0.199,0.794,0.403,1.722,0.612c0.928,0.21,1.563,0.394,1.911,0.551c0.502,0.231,0.87,0.527,1.11,0.882
					c0.237,0.354,0.357,0.765,0.357,1.227c0,0.456-0.131,0.891-0.392,1.296c-0.269,0.405-0.643,0.721-1.135,0.947
					c-0.494,0.222-1.047,0.338-1.664,0.338c-0.778,0-1.434-0.116-1.958-0.341c-0.531-0.229-0.94-0.57-1.243-1.028
					C461.181,393.416,461.024,392.901,461.005,392.325z"/>
				<path d="M469.432,395.096v-8.625h3.254c0.57,0,1.01,0.03,1.311,0.085c0.428,0.07,0.779,0.204,1.066,0.403
					c0.285,0.197,0.515,0.476,0.688,0.831c0.176,0.357,0.265,0.749,0.265,1.176c0,0.735-0.233,1.355-0.699,1.86
					c-0.468,0.509-1.312,0.765-2.531,0.765h-2.212v3.505H469.432L469.432,395.096z M470.574,390.573h2.23
					c0.737,0,1.261-0.141,1.567-0.414c0.31-0.274,0.466-0.659,0.466-1.156c0-0.363-0.089-0.674-0.272-0.928
					c-0.183-0.259-0.423-0.426-0.722-0.509c-0.191-0.054-0.545-0.075-1.066-0.075h-2.203V390.573L470.574,390.573z"/>
				<path d="M477.42,395.096v-8.625h1.144v7.608h4.244v1.017H477.42z"/>
				<path d="M483.222,395.096l3.311-8.625h1.229l3.528,8.625h-1.296l-1.009-2.61h-3.605l-0.944,2.61H483.222z M485.707,391.554
					h2.925l-0.898-2.391c-0.276-0.724-0.48-1.321-0.611-1.785c-0.112,0.552-0.266,1.104-0.464,1.646L485.707,391.554z"/>
				<path d="M493.737,395.096v-3.653l-3.323-4.974h1.388l1.701,2.601c0.315,0.486,0.606,0.974,0.874,1.461
					c0.263-0.453,0.576-0.96,0.941-1.524l1.673-2.536h1.327l-3.438,4.974v3.653L493.737,395.096L493.737,395.096z"/>
			</g>
			<g>
				<path d="M450.793,404.987l1.078-0.097c0.053,0.434,0.168,0.786,0.354,1.062c0.188,0.274,0.479,0.499,0.869,0.672
					c0.392,0.172,0.832,0.257,1.321,0.257c0.438,0,0.82-0.064,1.156-0.195c0.332-0.13,0.581-0.308,0.745-0.532
					c0.161-0.227,0.242-0.474,0.242-0.738c0-0.27-0.08-0.507-0.233-0.709c-0.156-0.202-0.416-0.37-0.776-0.506
					c-0.231-0.092-0.743-0.231-1.539-0.424c-0.791-0.19-1.344-0.37-1.659-0.535c-0.412-0.215-0.724-0.486-0.925-0.806
					c-0.197-0.32-0.302-0.678-0.302-1.073c0-0.435,0.126-0.842,0.372-1.219c0.245-0.381,0.608-0.67,1.083-0.863
					c0.476-0.197,1.003-0.295,1.581-0.295c0.637,0,1.204,0.104,1.689,0.309c0.488,0.207,0.865,0.51,1.129,0.911
					c0.263,0.398,0.401,0.852,0.422,1.36l-1.093,0.08c-0.059-0.544-0.26-0.957-0.598-1.234c-0.338-0.279-0.838-0.417-1.503-0.417
					c-0.692,0-1.195,0.127-1.512,0.378c-0.312,0.255-0.473,0.562-0.473,0.918c0,0.31,0.109,0.563,0.335,0.764
					c0.219,0.2,0.791,0.404,1.722,0.613c0.925,0.21,1.562,0.393,1.908,0.551c0.503,0.231,0.87,0.527,1.107,0.881
					c0.24,0.354,0.363,0.765,0.363,1.228c0,0.456-0.137,0.891-0.395,1.296c-0.263,0.404-0.64,0.721-1.134,0.946
					c-0.492,0.223-1.045,0.338-1.662,0.338c-0.778,0-1.434-0.115-1.964-0.341c-0.524-0.229-0.938-0.569-1.237-1.027
					C450.969,406.078,450.81,405.564,450.793,404.987z"/>
				<path d="M459.242,407.759v-8.626h6.233v1.021h-5.095v2.64h4.771v1.011h-4.771v2.938h5.296v1.017L459.242,407.759
					L459.242,407.759z"/>
				<path d="M467.205,407.759v-8.626h1.143v7.609h4.246v1.017H467.205z"/>
				<path d="M473.976,407.759v-8.626h6.237v1.021h-5.098v2.64h4.775v1.011h-4.775v2.938h5.296v1.017L473.976,407.759
					L473.976,407.759z"/>
				<path d="M488.143,404.736l1.141,0.285c-0.24,0.938-0.67,1.651-1.29,2.145s-1.383,0.739-2.282,0.739
					c-0.927,0-1.685-0.191-2.265-0.567c-0.581-0.38-1.025-0.924-1.333-1.643c-0.303-0.719-0.455-1.491-0.455-2.313
					c0-0.896,0.173-1.679,0.517-2.35c0.341-0.667,0.832-1.177,1.464-1.523c0.631-0.348,1.332-0.521,2.093-0.521
					c0.862,0,1.587,0.221,2.176,0.659c0.59,0.438,0.997,1.056,1.229,1.853l-1.123,0.266c-0.2-0.627-0.488-1.085-0.871-1.369
					c-0.383-0.286-0.859-0.434-1.437-0.434c-0.661,0-1.215,0.159-1.661,0.479c-0.444,0.319-0.758,0.743-0.938,1.279
					c-0.183,0.537-0.27,1.087-0.27,1.658c0,0.731,0.106,1.371,0.324,1.922c0.209,0.543,0.545,0.952,0.994,1.223
					c0.452,0.272,0.936,0.408,1.464,0.408c0.637,0,1.179-0.186,1.622-0.556C487.685,406.007,487.983,405.46,488.143,404.736z"/>
				<path d="M492.883,407.759v-7.604h-2.841v-1.021h6.832v1.021h-2.852v7.604H492.883z"/>
			</g>
		</g>
		<g>
			<path d="M520.305,403.767v-13.283h4.568c1.037,0,1.822,0.062,2.368,0.192c0.764,0.173,1.411,0.497,1.948,0.951
				c0.699,0.594,1.227,1.347,1.567,2.27c0.349,0.926,0.523,1.973,0.523,3.157c0,1.014-0.116,1.903-0.354,2.686
				c-0.233,0.779-0.539,1.424-0.905,1.929c-0.369,0.515-0.77,0.915-1.206,1.205c-0.438,0.297-0.969,0.516-1.592,0.671
				c-0.617,0.148-1.332,0.229-2.132,0.229h-4.788v-0.007H520.305z M522.058,402.201h2.837c0.876,0,1.562-0.084,2.062-0.25
				c0.495-0.159,0.891-0.395,1.189-0.687c0.42-0.416,0.741-0.977,0.975-1.681c0.234-0.707,0.349-1.557,0.349-2.562
				c0-1.388-0.229-2.455-0.687-3.199c-0.455-0.744-1.008-1.248-1.662-1.506c-0.469-0.176-1.229-0.266-2.275-0.266h-2.79v10.148
				h0.002V402.201z"/>
			<path d="M533.17,397.297c0-2.205,0.587-3.928,1.774-5.18c1.183-1.247,2.714-1.871,4.583-1.871c1.225,0,2.334,0.292,3.316,0.88
				c0.987,0.585,1.733,1.402,2.249,2.447c0.518,1.05,0.774,2.239,0.774,3.567c0,1.348-0.271,2.55-0.814,3.611
				c-0.54,1.061-1.311,1.869-2.309,2.418c-0.995,0.544-2.075,0.819-3.225,0.819c-1.254,0-2.367-0.307-3.352-0.907
				c-0.982-0.604-1.729-1.429-2.239-2.472C533.419,399.566,533.17,398.465,533.17,397.297z M534.979,397.322
				c0,1.601,0.436,2.862,1.296,3.786c0.857,0.918,1.941,1.383,3.236,1.383c1.324,0,2.413-0.469,3.268-1.396
				c0.854-0.934,1.279-2.25,1.279-3.96c0-1.084-0.183-2.027-0.549-2.831c-0.364-0.811-0.893-1.437-1.604-1.878
				c-0.705-0.441-1.492-0.671-2.368-0.671c-1.245,0-2.314,0.434-3.214,1.284C535.426,393.898,534.979,395.326,534.979,397.322z"/>
			<path d="M550.457,403.767l-3.528-13.283h1.802l2.022,8.709c0.216,0.907,0.402,1.812,0.558,2.721
				c0.339-1.424,0.537-2.238,0.601-2.458l2.53-8.972h2.117l1.897,6.727c0.476,1.669,0.823,3.232,1.034,4.706
				c0.17-0.844,0.394-1.807,0.665-2.894l2.082-8.535h1.768l-3.644,13.281h-1.697l-2.798-10.117c-0.23-0.848-0.374-1.367-0.415-1.562
				c-0.137,0.607-0.266,1.13-0.391,1.562l-2.814,10.117h-1.789V403.767L550.457,403.767z"/>
			<path d="M565.629,403.767v-13.283h1.807l6.975,10.43v-10.43h1.687v13.283h-1.805l-6.974-10.438v10.438H565.629z"/>
		</g>
		<g>
			<path d="M618.226,390.231h1.792v7.822c0,1.364-0.151,2.44-0.459,3.241c-0.312,0.798-0.865,1.453-1.667,1.953
				c-0.804,0.5-1.858,0.755-3.163,0.755c-1.271,0-2.31-0.222-3.113-0.658c-0.805-0.436-1.381-1.071-1.73-1.897
				c-0.344-0.832-0.513-1.958-0.513-3.396v-7.823h1.791v7.815c0,1.178,0.109,2.041,0.322,2.601c0.224,0.558,0.602,0.981,1.132,1.282
				c0.53,0.309,1.182,0.454,1.957,0.454c1.312,0,2.253-0.294,2.811-0.893c0.562-0.6,0.842-1.745,0.842-3.444L618.226,390.231
				L618.226,390.231z"/>
			<path d="M622.999,403.773v-13.542h5.109c0.897,0,1.585,0.048,2.057,0.133c0.664,0.108,1.226,0.319,1.675,0.635
				c0.45,0.309,0.808,0.745,1.079,1.304c0.276,0.562,0.421,1.176,0.421,1.848c0,1.152-0.368,2.127-1.104,2.921
				c-0.733,0.798-2.057,1.198-3.973,1.198h-3.472v5.505L622.999,403.773L622.999,403.773z M624.792,396.673h3.503
				c1.153,0,1.977-0.219,2.462-0.65c0.486-0.43,0.732-1.034,0.732-1.815c0-0.57-0.14-1.057-0.431-1.455
				c-0.287-0.406-0.665-0.67-1.129-0.799c-0.31-0.083-0.863-0.118-1.679-0.118h-3.46L624.792,396.673L624.792,396.673z"/>
		</g>
	</g>
	<g>
		<g>
			<path d="M208.27,398.753l1.807,0.451c-0.38,1.483-1.056,2.613-2.04,3.393c-0.986,0.779-2.186,1.169-3.604,1.169
				c-1.475,0-2.667-0.303-3.589-0.896c-0.92-0.602-1.619-1.462-2.101-2.598c-0.482-1.137-0.72-2.359-0.72-3.66
				c0-1.418,0.27-2.655,0.815-3.717c0.54-1.056,1.309-1.86,2.312-2.408c1.002-0.552,2.105-0.824,3.311-0.824
				c1.364,0,2.508,0.349,3.443,1.043c0.923,0.693,1.574,1.67,1.94,2.931l-1.778,0.42c-0.315-0.991-0.777-1.717-1.377-2.167
				c-0.602-0.453-1.362-0.685-2.267-0.685c-1.051,0-1.927,0.252-2.628,0.755c-0.706,0.506-1.198,1.178-1.483,2.026
				c-0.287,0.848-0.43,1.718-0.43,2.622c0,1.156,0.169,2.169,0.504,3.039c0.338,0.858,0.869,1.507,1.579,1.933
				c0.715,0.434,1.489,0.646,2.316,0.646c1.012,0,1.869-0.294,2.568-0.879C207.55,400.764,208.021,399.897,208.27,398.753z"/>
			<path d="M211.749,396.889c0-2.264,0.613-4.032,1.827-5.318c1.215-1.281,2.785-1.922,4.708-1.922c1.26,0,2.396,0.301,3.402,0.903
				c1.018,0.602,1.787,1.439,2.319,2.515c0.529,1.076,0.791,2.299,0.791,3.664c0,1.383-0.28,2.617-0.838,3.709
				c-0.559,1.089-1.346,1.92-2.374,2.482c-1.019,0.56-2.124,0.841-3.309,0.841c-1.287,0-2.432-0.312-3.443-0.932
				c-1.012-0.619-1.776-1.467-2.294-2.538C212.015,399.219,211.749,398.088,211.749,396.889z M213.612,396.915
				c0,1.644,0.443,2.94,1.321,3.888c0.889,0.943,1.997,1.421,3.33,1.421c1.36,0,2.476-0.48,3.356-1.434
				c0.876-0.959,1.314-2.312,1.314-4.067c0-1.112-0.188-2.083-0.563-2.905c-0.377-0.833-0.925-1.477-1.649-1.93
				c-0.723-0.455-1.53-0.688-2.432-0.688c-1.278,0-2.376,0.443-3.298,1.318C214.076,393.398,213.612,394.865,213.612,396.915z"/>
			<path d="M236.074,389.891h1.803v7.883c0,1.373-0.156,2.458-0.466,3.265c-0.307,0.804-0.87,1.465-1.675,1.968
				c-0.811,0.504-1.873,0.761-3.19,0.761c-1.275,0-2.325-0.224-3.135-0.663c-0.81-0.438-1.393-1.079-1.737-1.912
				c-0.35-0.838-0.521-1.974-0.521-3.42v-7.882h1.804v7.873c0,1.187,0.11,2.057,0.33,2.619c0.219,0.562,0.594,0.99,1.136,1.293
				c0.536,0.31,1.189,0.457,1.965,0.457c1.329,0,2.276-0.296,2.839-0.898c0.565-0.604,0.848-1.759,0.848-3.471L236.074,389.891
				L236.074,389.891z"/>
			<path d="M240.862,403.533V389.89h1.851l7.17,10.711V389.89h1.728v13.644h-1.85l-7.166-10.721v10.721H240.862z"/>
			<path d="M258.116,403.533v-12.027h-4.496v-1.615h10.809v1.615h-4.509v12.027H258.116z"/>
		</g>
		<g>
			<path d="M281.749,399.048l1.632-0.146c0.074,0.656,0.255,1.19,0.536,1.61c0.279,0.417,0.72,0.755,1.316,1.02
				c0.596,0.262,1.263,0.39,2.004,0.39c0.664,0,1.242-0.101,1.747-0.297c0.505-0.197,0.883-0.466,1.13-0.808
				c0.247-0.343,0.368-0.718,0.368-1.119c0-0.408-0.114-0.771-0.351-1.076c-0.236-0.307-0.633-0.562-1.18-0.766
				c-0.346-0.141-1.129-0.353-2.325-0.644c-1.204-0.289-2.042-0.562-2.525-0.812c-0.622-0.326-1.086-0.736-1.396-1.221
				c-0.308-0.485-0.455-1.026-0.455-1.627c0-0.659,0.184-1.273,0.557-1.847c0.373-0.577,0.921-1.016,1.642-1.31
				c0.718-0.301,1.517-0.447,2.399-0.447c0.965,0,1.821,0.157,2.562,0.468c0.738,0.312,1.308,0.772,1.708,1.38
				c0.398,0.606,0.612,1.292,0.639,2.062l-1.653,0.122c-0.091-0.822-0.395-1.449-0.908-1.871c-0.514-0.423-1.277-0.633-2.279-0.633
				c-1.042,0-1.808,0.191-2.286,0.573c-0.48,0.386-0.72,0.852-0.72,1.391c0,0.47,0.17,0.855,0.506,1.159
				c0.334,0.303,1.205,0.609,2.613,0.928c1.405,0.318,2.369,0.596,2.887,0.835c0.763,0.352,1.326,0.801,1.685,1.336
				c0.368,0.537,0.543,1.158,0.543,1.857c0,0.691-0.192,1.352-0.595,1.965c-0.395,0.613-0.97,1.092-1.717,1.436
				c-0.742,0.338-1.583,0.515-2.519,0.515c-1.182,0-2.172-0.177-2.973-0.519c-0.796-0.348-1.429-0.863-1.881-1.559
				C282.009,400.7,281.768,399.921,281.749,399.048z"/>
			<path d="M297.839,403.248v-11.526h-4.305v-1.549h10.357v1.549h-4.322v11.526H297.839z"/>
			<path d="M304.814,396.88c0-2.17,0.582-3.865,1.746-5.098c1.169-1.229,2.667-1.842,4.511-1.842c1.208,0,2.296,0.288,3.264,0.864
				c0.965,0.575,1.708,1.382,2.214,2.409c0.51,1.034,0.763,2.204,0.763,3.513c0,1.325-0.265,2.51-0.798,3.556
				c-0.536,1.043-1.294,1.839-2.272,2.379c-0.984,0.536-2.04,0.807-3.178,0.807c-1.227,0-2.332-0.302-3.299-0.894
				c-0.964-0.594-1.703-1.406-2.203-2.434C305.058,399.113,304.814,398.03,304.814,396.88z M306.593,396.905
				c0,1.573,0.424,2.817,1.272,3.726c0.848,0.904,1.907,1.361,3.188,1.361c1.303,0,2.373-0.461,3.217-1.374
				c0.839-0.919,1.259-2.215,1.259-3.896c0-1.067-0.18-1.997-0.535-2.787c-0.365-0.797-0.894-1.412-1.581-1.847
				c-0.693-0.438-1.477-0.661-2.335-0.661c-1.221,0-2.278,0.427-3.16,1.265C307.034,393.534,306.593,394.94,306.593,396.905z"/>
			<path d="M319.539,403.248v-13.075h4.934c0.867,0,1.533,0.048,1.988,0.129c0.646,0.106,1.181,0.312,1.615,0.613
				c0.435,0.298,0.787,0.719,1.049,1.26c0.264,0.54,0.395,1.134,0.395,1.782c0,1.112-0.351,2.053-1.062,2.818
				c-0.706,0.771-1.984,1.158-3.833,1.158h-3.351v5.313L319.539,403.248L319.539,403.248z M321.272,396.393h3.38
				c1.118,0,1.907-0.212,2.381-0.628c0.467-0.415,0.703-0.999,0.703-1.754c0-0.549-0.14-1.02-0.417-1.404
				c-0.275-0.392-0.634-0.646-1.092-0.771c-0.289-0.079-0.824-0.113-1.615-0.113h-3.341L321.272,396.393L321.272,396.393z"/>
		</g>
		<g>
			<path d="M349.202,403.531V389.88h6.049c1.218,0,2.138,0.128,2.777,0.368c0.631,0.247,1.137,0.686,1.512,1.301
				c0.38,0.624,0.569,1.304,0.569,2.06c0,0.966-0.313,1.78-0.935,2.443c-0.631,0.665-1.594,1.085-2.906,1.271
				c0.478,0.229,0.839,0.453,1.086,0.682c0.525,0.479,1.025,1.086,1.497,1.814l2.375,3.715h-2.274l-1.806-2.841
				c-0.526-0.821-0.961-1.445-1.3-1.878c-0.34-0.437-0.646-0.738-0.917-0.911c-0.271-0.174-0.545-0.298-0.823-0.361
				c-0.203-0.048-0.542-0.07-1.008-0.07h-2.088v6.063h-1.808V403.531L349.202,403.531z M351.008,395.906h3.876
				c0.83,0,1.477-0.086,1.941-0.255c0.464-0.174,0.816-0.442,1.061-0.82c0.242-0.376,0.362-0.782,0.362-1.222
				c0-0.648-0.232-1.179-0.702-1.597c-0.471-0.413-1.211-0.621-2.222-0.621h-4.316V395.906L351.008,395.906z"/>
			<path d="M362.976,403.531V389.88h9.87v1.617h-8.064v4.178h7.55v1.601h-7.55v4.648h8.386v1.609h-10.192V403.531z"/>
			<path d="M375.043,399.146l1.705-0.152c0.076,0.686,0.263,1.244,0.558,1.681c0.296,0.438,0.751,0.791,1.374,1.065
				c0.625,0.271,1.32,0.406,2.1,0.406c0.687,0,1.293-0.104,1.825-0.311c0.523-0.205,0.917-0.486,1.172-0.846
				c0.256-0.355,0.389-0.745,0.389-1.166c0-0.427-0.123-0.802-0.371-1.123c-0.247-0.32-0.661-0.586-1.227-0.8
				c-0.366-0.146-1.179-0.367-2.432-0.672c-1.252-0.301-2.131-0.587-2.634-0.848c-0.652-0.34-1.136-0.769-1.458-1.271
				c-0.319-0.511-0.476-1.072-0.476-1.7c0-0.688,0.193-1.33,0.586-1.927c0.39-0.604,0.963-1.062,1.714-1.367
				c0.753-0.312,1.585-0.468,2.501-0.468c1.006,0,1.907,0.162,2.676,0.488c0.77,0.326,1.367,0.807,1.784,1.44
				c0.417,0.632,0.641,1.348,0.673,2.152l-1.732,0.129c-0.093-0.86-0.415-1.516-0.948-1.954c-0.537-0.441-1.33-0.66-2.379-0.66
				c-1.091,0-1.887,0.2-2.387,0.599c-0.501,0.401-0.748,0.888-0.748,1.452c0,0.49,0.174,0.894,0.532,1.209
				c0.344,0.316,1.251,0.638,2.72,0.97c1.466,0.331,2.476,0.622,3.02,0.869c0.792,0.368,1.377,0.837,1.758,1.396
				c0.38,0.562,0.567,1.21,0.567,1.94c0,0.724-0.205,1.41-0.627,2.053c-0.412,0.64-1.007,1.14-1.787,1.497
				c-0.78,0.352-1.659,0.534-2.63,0.534c-1.236,0-2.272-0.184-3.105-0.537c-0.834-0.363-1.491-0.902-1.961-1.629
				C375.317,400.873,375.065,400.059,375.043,399.146z"/>
			<path d="M388.412,403.531V389.88h9.863v1.617h-8.059v4.178h7.55v1.601h-7.55v4.648h8.376v1.609h-10.181L388.412,403.531
				L388.412,403.531z"/>
			<path d="M404.559,403.531v-12.034h-4.491v-1.617h10.814v1.617h-4.513v12.034H404.559z"/>
		</g>
	</g>
	<g>
		<path d="M219.615,212.369l2.316-6.031h0.863l2.465,6.031h-0.906l-0.705-1.826h-2.522l-0.662,1.826H219.615z M221.356,209.893
			h2.045l-0.629-1.67c-0.193-0.508-0.334-0.925-0.428-1.251c-0.077,0.387-0.186,0.771-0.326,1.152L221.356,209.893z"/>
		<path d="M230.199,210.255l0.799,0.201c-0.168,0.656-0.468,1.156-0.903,1.5c-0.435,0.344-0.965,0.516-1.593,0.516
			c-0.652,0-1.179-0.133-1.587-0.396c-0.407-0.265-0.717-0.648-0.929-1.15c-0.213-0.502-0.318-1.041-0.318-1.616
			c0-0.629,0.119-1.176,0.358-1.644c0.241-0.467,0.582-0.824,1.025-1.065c0.443-0.245,0.931-0.367,1.463-0.367
			c0.603,0,1.109,0.156,1.522,0.462c0.409,0.308,0.696,0.739,0.858,1.295l-0.786,0.184c-0.14-0.437-0.344-0.757-0.609-0.955
			c-0.266-0.203-0.602-0.302-1.002-0.302c-0.465,0-0.853,0.109-1.162,0.333c-0.312,0.221-0.531,0.519-0.659,0.896
			c-0.125,0.372-0.188,0.759-0.188,1.156c0,0.512,0.075,0.961,0.223,1.344c0.15,0.382,0.383,0.668,0.699,0.856
			c0.316,0.191,0.658,0.286,1.024,0.286c0.448,0,0.826-0.129,1.136-0.389C229.881,211.144,230.089,210.764,230.199,210.255z"/>
		<path d="M233.514,212.369v-5.318h-1.986v-0.713h4.78v0.713h-1.996v5.318H233.514z"/>
		<path d="M237.264,212.369v-6.031h0.797v6.031H237.264z"/>
		<path d="M241.191,212.369l-2.336-6.031h0.862l1.567,4.381c0.125,0.353,0.232,0.68,0.318,0.988c0.093-0.328,0.2-0.658,0.326-0.988
			l1.627-4.381h0.813l-2.36,6.031H241.191z"/>
		<path d="M245.221,212.369v-6.031h0.8v6.031H245.221z"/>
		<path d="M248.961,212.369v-5.318h-1.988v-0.713h4.782v0.713h-1.996v5.318H248.961z"/>
		<path d="M254.271,212.369v-2.555l-2.324-3.476h0.969l1.19,1.82c0.219,0.338,0.423,0.678,0.612,1.019
			c0.182-0.316,0.4-0.67,0.66-1.065l1.166-1.773h0.931l-2.405,3.476v2.555L254.271,212.369L254.271,212.369z"/>
		<path d="M257.54,212.472l1.749-6.237h0.591l-1.743,6.237H257.54z"/>
		<path d="M226.678,221.596l-2.335-6.031h0.864l1.567,4.381c0.125,0.35,0.23,0.68,0.316,0.988c0.093-0.33,0.202-0.66,0.326-0.988
			l1.63-4.381h0.813l-2.36,6.031H226.678z"/>
		<path d="M230.332,218.659c0-1.002,0.267-1.786,0.806-2.353c0.539-0.565,1.231-0.848,2.082-0.848c0.556,0,1.059,0.134,1.506,0.398
			c0.445,0.267,0.785,0.638,1.02,1.114c0.235,0.476,0.352,1.017,0.352,1.62c0,0.611-0.124,1.158-0.368,1.64
			c-0.247,0.484-0.599,0.848-1.049,1.097c-0.453,0.247-0.941,0.371-1.465,0.371c-0.567,0-1.075-0.136-1.522-0.411
			c-0.445-0.273-0.786-0.648-1.017-1.122C230.446,219.691,230.332,219.187,230.332,218.659z M231.154,218.671
			c0,0.727,0.194,1.3,0.587,1.717c0.389,0.419,0.878,0.628,1.47,0.628c0.599,0,1.095-0.211,1.482-0.634
			c0.389-0.422,0.583-1.02,0.583-1.795c0-0.492-0.083-0.921-0.249-1.288c-0.166-0.364-0.409-0.647-0.727-0.85
			c-0.32-0.203-0.68-0.304-1.077-0.304c-0.565,0-1.051,0.194-1.458,0.583C231.357,217.116,231.154,217.764,231.154,218.671z"/>
		<path d="M237.094,221.596v-6.031h0.797v5.32h2.972v0.71L237.094,221.596L237.094,221.596z"/>
		<path d="M245.768,215.565h0.8v3.484c0,0.605-0.069,1.087-0.207,1.443c-0.138,0.356-0.385,0.647-0.743,0.87
			c-0.359,0.223-0.828,0.334-1.409,0.334c-0.565,0-1.026-0.097-1.387-0.292c-0.358-0.195-0.616-0.476-0.77-0.844
			c-0.154-0.369-0.231-0.875-0.231-1.512v-3.484h0.8v3.48c0,0.524,0.047,0.909,0.146,1.157c0.097,0.25,0.266,0.439,0.502,0.573
			c0.236,0.136,0.526,0.202,0.868,0.202c0.587,0,1.006-0.133,1.255-0.398c0.251-0.265,0.375-0.777,0.375-1.534L245.768,215.565
			L245.768,215.565z"/>
		<path d="M247.872,221.596v-6.031h1.201l1.427,4.27c0.132,0.399,0.227,0.694,0.288,0.893c0.069-0.218,0.174-0.542,0.32-0.968
			l1.445-4.194h1.073v6.031h-0.77v-5.047l-1.753,5.047h-0.719l-1.743-5.134v5.134L247.872,221.596L247.872,221.596z"/>
		<path d="M254.929,221.596v-6.031h4.36v0.711h-3.563v1.848h3.336v0.707h-3.336v2.055h3.703v0.71H254.929z"/>
	</g>
	<g>
		<path d="M360.958,134.614l1.183-0.104c0.056,0.474,0.186,0.864,0.393,1.168c0.202,0.302,0.522,0.548,0.952,0.737
			c0.431,0.186,0.915,0.279,1.453,0.279c0.479,0,0.903-0.069,1.268-0.212c0.368-0.142,0.64-0.338,0.817-0.585
			c0.181-0.247,0.27-0.518,0.27-0.812c0-0.295-0.087-0.556-0.257-0.777c-0.175-0.223-0.458-0.409-0.854-0.561
			c-0.255-0.097-0.818-0.253-1.688-0.461s-1.478-0.405-1.828-0.591c-0.452-0.237-0.79-0.53-1.01-0.882
			c-0.223-0.353-0.333-0.743-0.333-1.18c0-0.478,0.135-0.926,0.407-1.341c0.271-0.415,0.667-0.731,1.19-0.947
			c0.521-0.215,1.102-0.324,1.737-0.324c0.702,0,1.324,0.113,1.858,0.34c0.539,0.224,0.949,0.559,1.239,0.998
			c0.288,0.439,0.443,0.937,0.466,1.494l-1.203,0.089c-0.065-0.597-0.284-1.05-0.656-1.356c-0.373-0.306-0.923-0.459-1.652-0.459
			c-0.757,0-1.312,0.14-1.658,0.417c-0.346,0.279-0.521,0.613-0.521,1.006c0,0.34,0.122,0.62,0.369,0.84
			c0.241,0.221,0.871,0.445,1.891,0.676c1.018,0.231,1.716,0.431,2.097,0.603c0.551,0.253,0.96,0.577,1.221,0.965
			c0.264,0.391,0.395,0.84,0.395,1.349c0,0.506-0.146,0.98-0.433,1.425c-0.288,0.447-0.705,0.793-1.243,1.041
			c-0.542,0.249-1.15,0.373-1.826,0.373c-0.858,0-1.577-0.125-2.158-0.375c-0.579-0.251-1.032-0.625-1.362-1.129
			C361.149,135.816,360.975,135.248,360.958,134.614z"/>
		<path d="M372.625,137.659v-8.357h-3.122v-1.119h7.511v1.119h-3.134v8.357H372.625z"/>
		<path d="M377.834,135.159l1.166-0.156c0.134,0.66,0.36,1.133,0.681,1.425c0.322,0.29,0.712,0.435,1.174,0.435
			c0.546,0,1.008-0.188,1.387-0.569c0.376-0.378,0.564-0.848,0.564-1.409c0-0.534-0.174-0.974-0.522-1.32
			c-0.35-0.348-0.793-0.522-1.332-0.522c-0.221,0-0.494,0.042-0.822,0.13l0.13-1.022c0.077,0.01,0.14,0.014,0.186,0.014
			c0.498,0,0.943-0.129,1.34-0.387c0.396-0.259,0.593-0.658,0.593-1.197c0-0.427-0.144-0.779-0.432-1.061
			c-0.289-0.279-0.664-0.421-1.119-0.421c-0.452,0-0.83,0.145-1.132,0.429c-0.3,0.284-0.494,0.709-0.581,1.28l-1.164-0.208
			c0.141-0.78,0.465-1.383,0.969-1.812c0.504-0.429,1.132-0.644,1.88-0.644c0.519,0,0.995,0.111,1.43,0.332
			c0.435,0.223,0.767,0.526,0.998,0.909c0.231,0.385,0.346,0.792,0.346,1.221c0,0.411-0.109,0.784-0.33,1.12
			c-0.221,0.336-0.544,0.603-0.976,0.802c0.561,0.129,0.994,0.397,1.306,0.804c0.312,0.407,0.465,0.917,0.465,1.53
			c0,0.826-0.301,1.528-0.905,2.104c-0.603,0.575-1.367,0.862-2.289,0.862c-0.83,0-1.523-0.247-2.071-0.743
			C378.227,136.587,377.913,135.946,377.834,135.159z"/>
		<path d="M391.228,130.504l-1.156,0.091c-0.103-0.457-0.249-0.792-0.439-0.998c-0.315-0.332-0.702-0.499-1.164-0.499
			c-0.37,0-0.694,0.106-0.976,0.312c-0.366,0.267-0.653,0.655-0.866,1.169c-0.21,0.514-0.322,1.243-0.33,2.191
			c0.279-0.425,0.624-0.744,1.028-0.952c0.405-0.205,0.83-0.308,1.273-0.308c0.775,0,1.435,0.283,1.982,0.856
			c0.544,0.571,0.818,1.31,0.818,2.213c0,0.595-0.13,1.148-0.385,1.658c-0.257,0.51-0.609,0.903-1.057,1.174
			c-0.449,0.271-0.958,0.407-1.526,0.407c-0.97,0-1.761-0.356-2.373-1.071c-0.611-0.712-0.919-1.889-0.919-3.524
			c0-1.833,0.34-3.165,1.017-3.995c0.591-0.725,1.384-1.087,2.385-1.087c0.745,0,1.356,0.208,1.832,0.627
			C390.847,129.188,391.134,129.768,391.228,130.504z M386.479,134.588c0,0.401,0.084,0.785,0.254,1.152
			c0.17,0.366,0.409,0.644,0.713,0.836c0.308,0.192,0.628,0.287,0.964,0.287c0.492,0,0.915-0.198,1.267-0.595
			c0.352-0.395,0.53-0.933,0.53-1.616c0-0.654-0.174-1.17-0.522-1.546c-0.351-0.378-0.79-0.565-1.32-0.565
			c-0.527,0-0.972,0.187-1.338,0.565C386.661,133.482,386.479,133.977,386.479,134.588z"/>
		<path d="M392.554,132.986c0-1.122,0.115-2.022,0.346-2.707c0.23-0.682,0.573-1.208,1.028-1.581
			c0.454-0.368,1.024-0.555,1.715-0.555c0.508,0,0.954,0.102,1.338,0.308c0.384,0.205,0.7,0.5,0.951,0.884
			c0.249,0.387,0.446,0.857,0.587,1.41c0.142,0.554,0.215,1.301,0.215,2.241c0,1.111-0.115,2.008-0.344,2.692
			c-0.229,0.682-0.571,1.211-1.024,1.583c-0.453,0.373-1.028,0.559-1.723,0.559c-0.913,0-1.63-0.328-2.152-0.984
			C392.865,136.049,392.554,134.764,392.554,132.986z M393.75,132.986c0,1.555,0.182,2.591,0.546,3.105
			c0.365,0.514,0.814,0.771,1.347,0.771c0.534,0,0.984-0.259,1.348-0.775c0.365-0.516,0.544-1.551,0.544-3.102
			c0-1.561-0.18-2.597-0.544-3.109c-0.364-0.514-0.818-0.77-1.36-0.77c-0.537,0-0.961,0.227-1.281,0.678
			C393.948,130.363,393.75,131.43,393.75,132.986z"/>
		<path d="M410.827,134.337l1.254,0.315c-0.265,1.03-0.737,1.816-1.419,2.356c-0.686,0.541-1.52,0.812-2.505,0.812
			c-1.022,0-1.853-0.207-2.492-0.624s-1.127-1.018-1.461-1.808c-0.333-0.788-0.5-1.634-0.5-2.541c0-0.986,0.188-1.846,0.563-2.581
			c0.377-0.735,0.916-1.293,1.608-1.674c0.694-0.383,1.464-0.573,2.298-0.573c0.947,0,1.745,0.243,2.395,0.725
			c0.646,0.484,1.098,1.162,1.351,2.037l-1.235,0.29c-0.22-0.688-0.537-1.19-0.957-1.504c-0.416-0.315-0.941-0.471-1.574-0.471
			c-0.729,0-1.34,0.174-1.825,0.522c-0.49,0.35-0.834,0.818-1.032,1.405c-0.199,0.589-0.296,1.194-0.296,1.822
			c0,0.806,0.117,1.508,0.353,2.109s0.602,1.05,1.096,1.349c0.496,0.295,1.031,0.445,1.611,0.445c0.698,0,1.295-0.203,1.78-0.607
			C410.326,135.735,410.652,135.132,410.827,134.337z"/>
		<path d="M413.244,133.043c0-1.573,0.422-2.804,1.27-3.694c0.842-0.889,1.932-1.334,3.27-1.334c0.875,0,1.66,0.21,2.365,0.627
			c0.701,0.419,1.236,1,1.605,1.749c0.368,0.747,0.552,1.595,0.552,2.542c0,0.961-0.192,1.822-0.582,2.579
			c-0.388,0.757-0.936,1.332-1.646,1.723s-1.479,0.585-2.302,0.585c-0.893,0-1.688-0.215-2.393-0.648
			c-0.699-0.429-1.234-1.018-1.596-1.763C413.426,134.665,413.244,133.875,413.244,133.043z M414.536,133.063
			c0,1.142,0.308,2.041,0.921,2.698c0.613,0.658,1.386,0.986,2.311,0.986c0.945,0,1.722-0.332,2.332-0.997
			c0.609-0.664,0.915-1.605,0.915-2.824c0-0.771-0.132-1.445-0.393-2.02c-0.261-0.575-0.644-1.021-1.146-1.338
			c-0.502-0.316-1.063-0.474-1.689-0.474c-0.887,0-1.65,0.303-2.291,0.913C414.855,130.62,414.536,131.638,414.536,133.063z"/>
		<path d="M430.141,128.183h1.253v5.476c0,0.952-0.104,1.708-0.319,2.268c-0.218,0.561-0.606,1.016-1.168,1.368
			c-0.562,0.351-1.303,0.527-2.213,0.527c-0.891,0-1.616-0.154-2.181-0.458c-0.562-0.308-0.968-0.749-1.21-1.33
			c-0.24-0.579-0.359-1.371-0.359-2.375v-5.476h1.255v5.47c0,0.822,0.075,1.427,0.228,1.818c0.154,0.391,0.416,0.69,0.789,0.903
			c0.373,0.211,0.828,0.316,1.368,0.316c0.922,0,1.579-0.208,1.971-0.627c0.395-0.417,0.589-1.221,0.589-2.409L430.141,128.183
			L430.141,128.183z"/>
		<path d="M433.468,137.659v-9.476h1.288l4.978,7.439v-7.439h1.201v9.476h-1.285l-4.979-7.446v7.446H433.468z"/>
		<path d="M445.453,137.659v-8.357h-3.121v-1.119h7.51v1.119h-3.134v8.357H445.453z"/>
		<path d="M451.154,137.659v-9.476h6.85v1.119h-5.595v2.903h5.24v1.111h-5.24v3.225h5.813v1.118H451.154z"/>
		<path d="M459.977,137.659v-9.476h4.202c0.846,0,1.485,0.085,1.929,0.255c0.438,0.17,0.79,0.472,1.054,0.903
			c0.261,0.431,0.392,0.907,0.392,1.427c0,0.674-0.217,1.241-0.649,1.7c-0.438,0.462-1.107,0.755-2.019,0.879
			c0.332,0.162,0.583,0.318,0.758,0.474c0.364,0.336,0.713,0.755,1.04,1.259l1.647,2.579h-1.579l-1.253-1.972
			c-0.366-0.567-0.667-1.004-0.904-1.306c-0.235-0.3-0.45-0.512-0.637-0.634c-0.188-0.119-0.378-0.204-0.572-0.25
			c-0.142-0.031-0.374-0.044-0.697-0.044h-1.452v4.207L459.977,137.659L459.977,137.659z M461.231,132.365h2.694
			c0.57,0,1.021-0.059,1.347-0.179c0.319-0.117,0.564-0.308,0.734-0.569c0.166-0.261,0.251-0.544,0.251-0.85
			c0-0.447-0.162-0.816-0.49-1.105c-0.322-0.287-0.838-0.431-1.537-0.431h-2.999V132.365L461.231,132.365z"/>
	</g>
	<g>
		<circle fill="#1D1D1C" cx="299.292" cy="346.835" r="7.493"/>
		
			<radialGradient id="SVGID_4_" cx="340.4902" cy="342.0381" r="4.458" gradientTransform="matrix(1 0 0 1 -42 6)" gradientUnits="userSpaceOnUse">
			<stop  offset="0.0429" style="stop-color:#FFF8CC"/>
			<stop  offset="0.1227" style="stop-color:#2D161A"/>
			<stop  offset="0.8221" style="stop-color:#451724"/>
		</radialGradient>
		<circle fill="url(#SVGID_4_)" cx="298.49" cy="348.038" r="4.458"/>
	</g>
	<g>
		<circle fill="#1D1D1C" cx="227.087" cy="346.835" r="7.492"/>
		
			<radialGradient id="SVGID_5_" cx="268.2842" cy="342.0381" r="4.457" gradientTransform="matrix(1 0 0 1 -42 6)" gradientUnits="userSpaceOnUse">
			<stop  offset="0.0429" style="stop-color:#FFF8CC"/>
			<stop  offset="0.3067" style="stop-color:#DF0800"/>
			<stop  offset="0.8221" style="stop-color:#DF0800"/>
		</radialGradient>
		<circle fill="url(#SVGID_5_)" cx="226.284" cy="348.038" r="4.457"/>
	</g>
	<rect x="196.136" y="121.682" fill="#509AB4" width="149.225" height="0.769"/>
	<rect x="195.434" y="123.755" fill="#509AB4" width="149.225" height="0.77"/>
	<rect x="194.731" y="125.828" fill="#509AB4" width="149.227" height="0.767"/>
	<rect x="194.031" y="127.899" fill="#509AB4" width="149.224" height="0.769"/>
	<rect x="193.326" y="129.972" fill="#509AB4" width="149.227" height="0.769"/>
	<rect x="192.626" y="132.045" fill="#509AB4" width="149.226" height="0.769"/>
	<rect x="191.923" y="134.118" fill="#509AB4" width="149.225" height="0.77"/>
	<rect x="191.221" y="136.191" fill="#509AB4" width="149.227" height="0.77"/>
	<rect x="190.52" y="138.264" fill="#509AB4" width="149.225" height="0.769"/>
	<rect x="189.816" y="140.337" fill="#509AB4" width="149.226" height="0.769"/>
	<g>
		<path fill="#EE2D2B" d="M302.567,193.799l-6.417,3.316v-16.45l3.187-2.853l3.231,2.853L302.567,193.799L302.567,193.799z
			 M302.567,215.025l-3.231,2.852l-3.187-2.852v-16.45l6.417,2.852L302.567,215.025L302.567,215.025z M322.568,176.95l-3.284,2.786
			h-15.62l-3.284-2.786l3.284-2.919h15.62L322.568,176.95z M322.568,218.807l-3.284,2.918h-15.62l-3.284-2.918l3.284-2.786h15.62
			L322.568,218.807z M326.746,197.115l-6.417-3.316v-13.134l3.184-2.853l3.233,2.853V197.115z M326.746,215.025l-3.233,2.852
			l-3.184-2.852v-13.598l6.417-2.852V215.025z"/>
		<path fill="#EE2D2B" d="M346.997,193.799l-6.417,3.316v-16.45l3.184-2.853l3.233,2.853V193.799z M346.997,215.025l-3.233,2.852
			l-3.184-2.852v-16.45l6.417,2.852V215.025z M366.998,176.95l-3.284,2.786h-15.623l-3.283-2.786l3.283-2.919h15.623L366.998,176.95
			z M366.998,218.807l-3.284,2.918h-15.623l-3.283-2.918l3.283-2.786h15.623L366.998,218.807z M371.176,197.115l-6.417-3.316
			v-13.134l3.184-2.853l3.233,2.853V197.115z M371.176,215.025l-3.233,2.852l-3.184-2.852v-13.598l6.417-2.852V215.025z"/>
		<path fill="#EE2D2B" d="M391.426,193.799l-6.419,3.316v-16.45l3.184-2.853l3.235,2.853V193.799L391.426,193.799z M391.426,215.025
			l-3.235,2.852l-3.184-2.852v-16.45l6.419,2.852V215.025L391.426,215.025z M411.425,176.95l-3.284,2.786h-15.622l-3.284-2.786
			l3.284-2.919h15.622L411.425,176.95z M411.425,218.807l-3.284,2.918h-15.622l-3.284-2.918l3.284-2.786h15.622L411.425,218.807z
			 M415.605,197.115l-6.42-3.316v-13.134l3.185-2.853l3.235,2.853V197.115L415.605,197.115z M415.605,215.025l-3.235,2.852
			l-3.185-2.852v-13.598l6.42-2.852V215.025L415.605,215.025z"/>
		<path fill="#EE2D2B" d="M435.854,193.799l-6.42,3.316v-16.45l3.187-2.853l3.233,2.853V193.799L435.854,193.799z M435.854,215.025
			l-3.233,2.852l-3.187-2.852v-16.45l6.422,2.852L435.854,215.025L435.854,215.025z M455.853,176.95l-3.282,2.786h-15.622
			l-3.283-2.786l3.283-2.919h15.622L455.853,176.95z M455.853,218.807l-3.282,2.918h-15.622l-3.283-2.918l3.283-2.786h15.622
			L455.853,218.807z M460.032,197.115l-6.419-3.316v-13.134l3.185-2.853l3.234,2.853V197.115z M460.032,215.025l-3.234,2.852
			l-3.185-2.852v-13.598l6.419-2.852V215.025z"/>
		<path fill="#EE2D2B" d="M480.282,193.799l-6.419,3.316v-16.45l3.185-2.853l3.234,2.853V193.799z M480.282,215.025l-3.234,2.852
			l-3.185-2.852v-16.45l6.419,2.852V215.025z M500.282,176.95l-3.284,2.786h-15.622l-3.284-2.786l3.284-2.919h15.622L500.282,176.95
			z M500.282,218.807l-3.284,2.918h-15.622l-3.284-2.918l3.284-2.786h15.622L500.282,218.807z M504.463,197.115l-6.42-3.316v-13.134
			l3.184-2.853l3.236,2.853V197.115L504.463,197.115z M504.463,215.025l-3.236,2.852l-3.184-2.852v-13.598l6.42-2.852V215.025
			L504.463,215.025z"/>
		<path fill="#EE2D2B" d="M524.71,193.799l-6.42,3.316v-16.45l3.186-2.853l3.234,2.853V193.799z M524.71,215.025l-3.234,2.852
			l-3.186-2.852v-16.45l6.42,2.852V215.025z M544.709,176.95l-3.283,2.786h-15.622l-3.283-2.786l3.283-2.919h15.622L544.709,176.95z
			 M544.709,218.807l-3.283,2.918h-15.622l-3.283-2.918l3.283-2.786h15.622L544.709,218.807z M548.89,197.115l-6.419-3.316v-13.134
			l3.186-2.853l3.233,2.853V197.115z M548.89,215.025l-3.233,2.852l-3.186-2.852v-13.598l6.419-2.852V215.025z"/>
	</g>
</g>
<linearGradient id="SVGID_6_" gradientUnits="userSpaceOnUse" x1="2512.0703" y1="2707.8828" x2="2512.0703" y2="2682.4492" gradientTransform="matrix(-1.0473 0 0 -1.0473 3048.3899 2926.4661)">
	<stop  offset="0" style="stop-color:#A6A699"/>
	<stop  offset="0.2885" style="stop-color:#A1A192"/>
	<stop  offset="1" style="stop-color:#9F9F90"/>
</linearGradient>
<polygon fill="url(#SVGID_6_)" points="185.326,90.5 649.64,90.5 670.5,107.5 670.404,117.137 164.596,117.137 164.5,107.5 "/>
</svg>
