<?xml version="1.0" encoding="utf-8"?>
<!-- Generator: Adobe Illustrator 15.0.0, SVG Export Plug-In . SVG Version: 6.00 Build 0)  -->
<!DOCTYPE svg PUBLIC "-//W3C//DTD SVG 1.1//EN" "http://www.w3.org/Graphics/SVG/1.1/DTD/svg11.dtd">
<svg version="1.1" id="Layer_1" xmlns="http://www.w3.org/2000/svg" xmlns:xlink="http://www.w3.org/1999/xlink" x="0px" y="0px"
	 width="800px" height="600px" viewBox="0 0 800 600" enable-background="new 0 0 800 600" xml:space="preserve">
<g>
	<path fill="none" d="M437.705,323.495c0.001-0.002,0.006-0.004,0.006-0.007c0.008-0.252-0.807-0.492-1.997-0.641l0.028,0.023
		C436.899,323.02,437.686,323.251,437.705,323.495z"/>
	
		<linearGradient id="SVGID_1_" gradientUnits="userSpaceOnUse" x1="365.3367" y1="488.373" x2="365.3367" y2="525.8683" gradientTransform="matrix(0.9996 0.029 -0.029 0.9996 44.4018 -161.1277)">
		<stop  offset="0.0184" style="stop-color:#656572"/>
		<stop  offset="0.5951" style="stop-color:#7C7C88"/>
		<stop  offset="1" style="stop-color:#939499"/>
	</linearGradient>
	<polygon opacity="0.43" fill="url(#SVGID_1_)" points="455.621,339.393 334.004,339.921 335.335,367.648 342,367.609 342,367.605 
		455.941,366.936 	"/>
	
		<linearGradient id="SVGID_2_" gradientUnits="userSpaceOnUse" x1="205.8293" y1="488.3691" x2="205.8293" y2="525.8632" gradientTransform="matrix(0.9996 0.029 -0.029 0.9996 44.4018 -161.1277)">
		<stop  offset="0.0184" style="stop-color:#656572"/>
		<stop  offset="0.5951" style="stop-color:#7C7C88"/>
		<stop  offset="1" style="stop-color:#939499"/>
	</linearGradient>
	<polygon opacity="0.43" fill="url(#SVGID_2_)" points="170.957,340.514 170.957,340.512 170.745,340.514 169.929,368.609 
		296.288,367.877 300,367.855 298.832,340.061 	"/>
	
		<linearGradient id="SVGID_3_" gradientUnits="userSpaceOnUse" x1="455.7854" y1="573.6943" x2="455.7854" y2="573.6895" gradientTransform="matrix(1 0 0 1 -20.8599 -238.4453)">
		<stop  offset="0.2147" style="stop-color:#E7E4E6"/>
		<stop  offset="0.263" style="stop-color:#E3E0E2"/>
		<stop  offset="0.315" style="stop-color:#D7D4D5"/>
		<stop  offset="0.3687" style="stop-color:#C3BFBF"/>
		<stop  offset="0.4232" style="stop-color:#A8A3A1"/>
		<stop  offset="0.454" style="stop-color:#95908D"/>
		<stop  offset="0.5568" style="stop-color:#4D4B44"/>
		<stop  offset="0.6113" style="stop-color:#2D2D26"/>
	</linearGradient>
	<path fill="url(#SVGID_3_)" d="M435.246,335.247c-0.25,0.001-0.466-0.001-0.642-0.005c0.033,0.001,0.074,0.003,0.103,0.004
		C434.836,335.25,435.021,335.251,435.246,335.247z"/>
	
		<linearGradient id="SVGID_4_" gradientUnits="userSpaceOnUse" x1="453.5178" y1="583.0947" x2="453.9356" y2="531.8275" gradientTransform="matrix(1 0 0 1 -20.8599 -238.4453)">
		<stop  offset="0.2147" style="stop-color:#E7E4E6"/>
		<stop  offset="0.263" style="stop-color:#E3E0E2"/>
		<stop  offset="0.315" style="stop-color:#D7D4D5"/>
		<stop  offset="0.3687" style="stop-color:#C3BFBF"/>
		<stop  offset="0.4232" style="stop-color:#A8A3A1"/>
		<stop  offset="0.454" style="stop-color:#95908D"/>
		<stop  offset="0.5568" style="stop-color:#4D4B44"/>
		<stop  offset="0.6113" style="stop-color:#2D2D26"/>
	</linearGradient>
	<path fill="url(#SVGID_4_)" d="M433.841,322.729c0.695,0.021,1.339,0.072,1.901,0.145l-0.028-0.023
		c-0.559-0.069-1.191-0.121-1.876-0.142c-2.15-0.062-3.9,0.187-3.912,0.556c0,0.004,0.007,0.008,0.007,0.014
		C429.964,322.91,431.703,322.665,433.841,322.729z"/>
	
		<linearGradient id="SVGID_5_" gradientUnits="userSpaceOnUse" x1="414.1907" y1="582.7725" x2="414.6085" y2="531.5065" gradientTransform="matrix(1 0 0 1 -20.8599 -238.4453)">
		<stop  offset="0.2147" style="stop-color:#E7E4E6"/>
		<stop  offset="0.263" style="stop-color:#E3E0E2"/>
		<stop  offset="0.315" style="stop-color:#D7D4D5"/>
		<stop  offset="0.3687" style="stop-color:#C3BFBF"/>
		<stop  offset="0.4232" style="stop-color:#A8A3A1"/>
		<stop  offset="0.454" style="stop-color:#95908D"/>
		<stop  offset="0.5568" style="stop-color:#4D4B44"/>
		<stop  offset="0.6113" style="stop-color:#2D2D26"/>
	</linearGradient>
	<path fill="url(#SVGID_5_)" d="M334.002,339.869l121.619-0.48v0.004h0.057l-3.604-3.023c0.002-0.053-0.161-0.104-0.161-0.156
		l0.089,0.051c0-0.018,0-0.031,0-0.05l-11.537-9.466l-0.232-0.189l-0.149,5.194c0,0-1.414,1.065-6.182,1.368
		c-0.523,0.033-1.014,0.033-1.479,0.018c0.526,0.027,1.093,0.028,1.698-0.011c4.768-0.304,6.067-1.295,6.067-1.295l1.021,0.06
		l-0.107,1.366l0.161,0.354c0.078-0.067,0.158-0.135,0.228-0.209l1.062,0.188l0.509,2.21c0,0-2.265,1.779-9.782,1.561
		c-7.519-0.217-8.802-1.729-8.802-1.729l0.189-2.717l0.525,0.038l0.137-0.018l0.382-1.675l0.791-0.567l0.319,0.408l0.21-7.252
		c0,0,0.119-0.064,0.246-0.171c0.461,0.835,1.988,1.895,6.448,2.022c0.434,0.013,0.848,0.016,1.241,0.009
		c-0.395,0.007-0.808,0.004-1.24-0.009c-4.46-0.129-5.933-1.184-6.395-2.021c0.59-0.486,2.593-1.85,6.505-1.736
		c0.289,0.01,0.565,0.024,0.833,0.048l-0.006-0.005l-26.926-22.114l-2.551-0.062l-64.412-0.096l0.201,15.442l-9.793,9.304
		c0,0,0.689,5.103,0.689,8.257l2.124,7.117L334.002,339.869z M451.948,336.264c-0.005,1.01-0.026,1.586-0.026,1.586
		s-0.038-0.598-0.035-1.638L451.948,336.264z"/>
	
		<linearGradient id="SVGID_6_" gradientUnits="userSpaceOnUse" x1="364.7771" y1="488.3691" x2="364.7771" y2="525.8813" gradientTransform="matrix(0.9996 0.029 -0.029 0.9996 44.4018 -161.1277)">
		<stop  offset="0.0184" style="stop-color:#656572"/>
		<stop  offset="0.5951" style="stop-color:#7C7C88"/>
		<stop  offset="1" style="stop-color:#939499"/>
	</linearGradient>
	<polygon fill="url(#SVGID_6_)" points="334.002,339.869 334.004,339.921 455.621,339.393 455.621,339.389 	"/>
	
		<linearGradient id="SVGID_7_" gradientUnits="userSpaceOnUse" x1="415.635" y1="582.7852" x2="416.0529" y2="531.5179" gradientTransform="matrix(1 0 0 1 -20.8599 -238.4453)">
		<stop  offset="0.2147" style="stop-color:#E7E4E6"/>
		<stop  offset="0.263" style="stop-color:#E3E0E2"/>
		<stop  offset="0.315" style="stop-color:#D7D4D5"/>
		<stop  offset="0.3687" style="stop-color:#C3BFBF"/>
		<stop  offset="0.4232" style="stop-color:#A8A3A1"/>
		<stop  offset="0.454" style="stop-color:#95908D"/>
		<stop  offset="0.5568" style="stop-color:#4D4B44"/>
		<stop  offset="0.6113" style="stop-color:#2D2D26"/>
	</linearGradient>
	<polygon fill="url(#SVGID_7_)" points="334.002,339.869 334.004,339.921 455.621,339.393 455.621,339.389 	"/>
	
		<linearGradient id="SVGID_8_" gradientUnits="userSpaceOnUse" x1="421.8674" y1="487.6543" x2="419.2936" y2="435.6437" gradientTransform="matrix(0.9996 0.029 -0.029 0.9996 44.4018 -161.1277)">
		<stop  offset="0" style="stop-color:#CFCBCC"/>
		<stop  offset="0.2454" style="stop-color:#95908D"/>
		<stop  offset="0.407" style="stop-color:#55524B"/>
		<stop  offset="0.5583" style="stop-color:#2D2D26"/>
		<stop  offset="0.6135" style="stop-color:#605B50"/>
		<stop  offset="0.681" style="stop-color:#4E483B"/>
	</linearGradient>
	<path fill="url(#SVGID_8_)" d="M451.948,336.264l-0.062-0.052c-0.003,1.04,0.035,1.638,0.035,1.638
		S451.943,337.273,451.948,336.264z"/>
	
		<linearGradient id="SVGID_9_" gradientUnits="userSpaceOnUse" x1="472.7073" y1="583.2549" x2="473.1253" y2="531.9571" gradientTransform="matrix(1 0 0 1 -20.8599 -238.4453)">
		<stop  offset="0.2147" style="stop-color:#E7E4E6"/>
		<stop  offset="0.263" style="stop-color:#E3E0E2"/>
		<stop  offset="0.315" style="stop-color:#D7D4D5"/>
		<stop  offset="0.3687" style="stop-color:#C3BFBF"/>
		<stop  offset="0.4232" style="stop-color:#A8A3A1"/>
		<stop  offset="0.454" style="stop-color:#95908D"/>
		<stop  offset="0.5568" style="stop-color:#4D4B44"/>
		<stop  offset="0.6113" style="stop-color:#2D2D26"/>
	</linearGradient>
	<path fill="url(#SVGID_9_)" d="M451.948,336.264l-0.062-0.052c-0.003,1.04,0.035,1.638,0.035,1.638
		S451.943,337.273,451.948,336.264z"/>
	
		<linearGradient id="SVGID_10_" gradientUnits="userSpaceOnUse" x1="256.1687" y1="583.2393" x2="256.595" y2="530.9342" gradientTransform="matrix(1 0 0 1 -20.8599 -238.4453)">
		<stop  offset="0.2147" style="stop-color:#E7E4E6"/>
		<stop  offset="0.263" style="stop-color:#E3E0E2"/>
		<stop  offset="0.315" style="stop-color:#D7D4D5"/>
		<stop  offset="0.3687" style="stop-color:#C3BFBF"/>
		<stop  offset="0.4232" style="stop-color:#A8A3A1"/>
		<stop  offset="0.454" style="stop-color:#95908D"/>
		<stop  offset="0.5568" style="stop-color:#4D4B44"/>
		<stop  offset="0.6113" style="stop-color:#2D2D26"/>
	</linearGradient>
	<path fill="url(#SVGID_10_)" d="M299.837,334.113c-0.461-0.479-0.731-0.973-0.731-1.461c0-1.028,0.292-1.043,0.633-1.541
		l0.319-5.905c0,0-2.229,0.168-6.853-2.347c-2.606-1.416-15.423-8.879-15.423-8.879l0.172-6.853l0.185-7.505l-87.585-0.017
		l0.045,0.119l3.456,0.101l-3.458-0.101l-4.803,7.609l-0.086-0.021l-14.951,32.758l0.2,0.438l127.885-0.504L299.837,334.113z
		 M192.961,337.468c-7.518-0.216-8.801-1.729-8.801-1.729l0.19-2.717l0.528,0.037l0.135-0.018l0.381-1.674l0.791-0.57l0.319,0.408
		l0.211-7.249c0,0,0.119-0.066,0.247-0.17c0.459,0.836,1.988,1.893,6.448,2.022c-4.461-0.131-5.934-1.187-6.395-2.022
		c0.59-0.485,2.592-1.851,6.504-1.736c4.753,0.14,6.46,2.29,6.46,2.29l-0.01,0.391l-0.207,7.127c0,0-1.414,1.066-6.181,1.371
		c-0.521,0.032-1.004,0.033-1.466,0.017c0.523,0.028,1.085,0.026,1.687-0.011c4.766-0.305,6.067-1.295,6.068-1.295l1.021,0.059
		l-0.106,1.367l0.16,0.351c0.077-0.067,0.155-0.133,0.224-0.205l1.064,0.188l0.509,2.209
		C202.744,335.908,200.478,337.688,192.961,337.468z"/>
	
		<linearGradient id="SVGID_11_" gradientUnits="userSpaceOnUse" x1="215.3962" y1="573.7988" x2="215.3962" y2="573.7964" gradientTransform="matrix(1 0 0 1 -20.8599 -238.4453)">
		<stop  offset="0.2147" style="stop-color:#E7E4E6"/>
		<stop  offset="0.263" style="stop-color:#E3E0E2"/>
		<stop  offset="0.315" style="stop-color:#D7D4D5"/>
		<stop  offset="0.3687" style="stop-color:#C3BFBF"/>
		<stop  offset="0.4232" style="stop-color:#A8A3A1"/>
		<stop  offset="0.454" style="stop-color:#95908D"/>
		<stop  offset="0.5568" style="stop-color:#4D4B44"/>
		<stop  offset="0.6113" style="stop-color:#2D2D26"/>
	</linearGradient>
	<path fill="url(#SVGID_11_)" d="M194.391,335.352c0.084,0.002,0.201,0.004,0.33,0.002c-0.136,0-0.259,0-0.369-0.004
		C194.364,335.352,194.38,335.352,194.391,335.352z"/>
	
		<linearGradient id="SVGID_12_" gradientUnits="userSpaceOnUse" x1="214.2312" y1="582.8984" x2="214.6575" y2="530.5922" gradientTransform="matrix(1 0 0 1 -20.8599 -238.4453)">
		<stop  offset="0.2147" style="stop-color:#E7E4E6"/>
		<stop  offset="0.263" style="stop-color:#E3E0E2"/>
		<stop  offset="0.315" style="stop-color:#D7D4D5"/>
		<stop  offset="0.3687" style="stop-color:#C3BFBF"/>
		<stop  offset="0.4232" style="stop-color:#A8A3A1"/>
		<stop  offset="0.454" style="stop-color:#95908D"/>
		<stop  offset="0.5568" style="stop-color:#4D4B44"/>
		<stop  offset="0.6113" style="stop-color:#2D2D26"/>
	</linearGradient>
	<path fill="url(#SVGID_12_)" d="M193.514,322.82c2.149,0.062,3.884,0.412,3.873,0.781c-0.001,0.045-0.031,0.086-0.079,0.127
		c0.055-0.043,0.085-0.088,0.087-0.135c0.01-0.369-1.724-0.72-3.873-0.781c-1.886-0.055-3.464,0.131-3.831,0.427
		C190.069,322.947,191.639,322.766,193.514,322.82z"/>
	
		<linearGradient id="SVGID_13_" gradientUnits="userSpaceOnUse" x1="204.9534" y1="488.3701" x2="204.9534" y2="525.8555" gradientTransform="matrix(0.9996 0.029 -0.029 0.9996 44.4018 -161.1277)">
		<stop  offset="0.0184" style="stop-color:#656572"/>
		<stop  offset="0.5951" style="stop-color:#7C7C88"/>
		<stop  offset="1" style="stop-color:#939499"/>
	</linearGradient>
	<polygon fill="url(#SVGID_13_)" points="298.832,340.061 298.832,340.061 298.842,340.008 170.957,340.512 170.957,340.514 	"/>
	
		<linearGradient id="SVGID_14_" gradientUnits="userSpaceOnUse" x1="255.7229" y1="583.2354" x2="256.1492" y2="530.9291" gradientTransform="matrix(1 0 0 1 -20.8599 -238.4453)">
		<stop  offset="0.2147" style="stop-color:#E7E4E6"/>
		<stop  offset="0.263" style="stop-color:#E3E0E2"/>
		<stop  offset="0.315" style="stop-color:#D7D4D5"/>
		<stop  offset="0.3687" style="stop-color:#C3BFBF"/>
		<stop  offset="0.4232" style="stop-color:#A8A3A1"/>
		<stop  offset="0.454" style="stop-color:#95908D"/>
		<stop  offset="0.5568" style="stop-color:#4D4B44"/>
		<stop  offset="0.6113" style="stop-color:#2D2D26"/>
	</linearGradient>
	<polygon fill="url(#SVGID_14_)" points="298.832,340.061 298.832,340.061 298.842,340.008 170.957,340.512 170.957,340.514 	"/>
	
		<linearGradient id="SVGID_15_" gradientUnits="userSpaceOnUse" x1="213.9641" y1="582.8955" x2="214.3904" y2="530.5892" gradientTransform="matrix(1 0 0 1 -20.8599 -238.4453)">
		<stop  offset="0.2147" style="stop-color:#E7E4E6"/>
		<stop  offset="0.263" style="stop-color:#E3E0E2"/>
		<stop  offset="0.315" style="stop-color:#D7D4D5"/>
		<stop  offset="0.3687" style="stop-color:#C3BFBF"/>
		<stop  offset="0.4232" style="stop-color:#A8A3A1"/>
		<stop  offset="0.454" style="stop-color:#95908D"/>
		<stop  offset="0.5568" style="stop-color:#4D4B44"/>
		<stop  offset="0.6113" style="stop-color:#2D2D26"/>
	</linearGradient>
	<path fill="url(#SVGID_15_)" d="M192.117,333.245c0.461,0.019,0.945,0.017,1.466-0.017c4.767-0.305,6.181-1.371,6.181-1.371
		l0.207-7.127c-0.904,0.631-3.092,1.181-6.56,1.078c-4.46-0.129-5.989-1.187-6.448-2.021c-0.128,0.104-0.247,0.17-0.247,0.17
		l-0.211,7.249l0.214,0.274C186.719,331.48,188.49,333.052,192.117,333.245z"/>
	
		<linearGradient id="SVGID_16_" gradientUnits="userSpaceOnUse" x1="156.3171" y1="485.2188" x2="169.5896" y2="485.2188" gradientTransform="matrix(0.9996 0.029 -0.029 0.9996 44.4018 -161.1277)">
		<stop  offset="0.0061" style="stop-color:#25252A"/>
		<stop  offset="0.454" style="stop-color:#2F3341"/>
		<stop  offset="1" style="stop-color:#25252A"/>
	</linearGradient>
	<path fill="url(#SVGID_16_)" d="M192.117,333.245c0.461,0.019,0.945,0.017,1.466-0.017c4.767-0.305,6.181-1.371,6.181-1.371
		l0.207-7.127c-0.904,0.631-3.092,1.181-6.56,1.078c-4.46-0.129-5.989-1.187-6.448-2.021c-0.128,0.104-0.247,0.17-0.247,0.17
		l-0.211,7.249l0.214,0.274C186.719,331.48,188.49,333.052,192.117,333.245z"/>
	
		<linearGradient id="SVGID_17_" gradientUnits="userSpaceOnUse" x1="214.1921" y1="582.9023" x2="214.6185" y2="530.5825" gradientTransform="matrix(1 0 0 1 -20.8599 -238.4453)">
		<stop  offset="0.2147" style="stop-color:#E7E4E6"/>
		<stop  offset="0.263" style="stop-color:#E3E0E2"/>
		<stop  offset="0.315" style="stop-color:#D7D4D5"/>
		<stop  offset="0.3687" style="stop-color:#C3BFBF"/>
		<stop  offset="0.4232" style="stop-color:#A8A3A1"/>
		<stop  offset="0.454" style="stop-color:#95908D"/>
		<stop  offset="0.5568" style="stop-color:#4D4B44"/>
		<stop  offset="0.6113" style="stop-color:#2D2D26"/>
	</linearGradient>
	<path fill="url(#SVGID_17_)" d="M199.971,324.73l0.01-0.391c0,0-1.707-2.15-6.46-2.29c-3.912-0.112-5.914,1.251-6.504,1.736
		c0.461,0.837,1.934,1.893,6.395,2.022C196.879,325.911,199.067,325.361,199.971,324.73z M193.475,324.157
		c-2.149-0.062-3.884-0.413-3.873-0.782c0.001-0.047,0.033-0.093,0.089-0.136c0.366-0.296,1.944-0.48,3.831-0.427
		c2.149,0.062,3.883,0.412,3.873,0.781c-0.001,0.047-0.032,0.092-0.087,0.135C196.95,324.025,195.369,324.212,193.475,324.157z"/>
	
		<linearGradient id="SVGID_18_" gradientUnits="userSpaceOnUse" x1="156.614" y1="480.5195" x2="169.5896" y2="480.5195" gradientTransform="matrix(0.9996 0.029 -0.029 0.9996 44.4018 -161.1277)">
		<stop  offset="0.0184" style="stop-color:#8C8685"/>
		<stop  offset="0.4847" style="stop-color:#CBC6C9"/>
		<stop  offset="1" style="stop-color:#8C8685"/>
	</linearGradient>
	<path fill="url(#SVGID_18_)" d="M199.971,324.73l0.01-0.391c0,0-1.707-2.15-6.46-2.29c-3.912-0.112-5.914,1.251-6.504,1.736
		c0.461,0.837,1.934,1.893,6.395,2.022C196.879,325.911,199.067,325.361,199.971,324.73z M193.475,324.157
		c-2.149-0.062-3.884-0.413-3.873-0.782c0.001-0.047,0.033-0.093,0.089-0.136c0.366-0.296,1.944-0.48,3.831-0.427
		c2.149,0.062,3.883,0.412,3.873,0.781c-0.001,0.047-0.032,0.092-0.087,0.135C196.95,324.025,195.369,324.212,193.475,324.157z"/>
	<path fill="#1C1915" d="M193.482,324.15c1.876,0.054,3.449-0.131,3.825-0.422c0.048-0.041,0.078-0.082,0.079-0.127
		c0.011-0.369-1.723-0.72-3.873-0.781c-1.875-0.057-3.444,0.127-3.823,0.419c-0.051,0.042-0.08,0.085-0.082,0.13
		C189.598,323.738,191.332,324.087,193.482,324.15z"/>
	<path fill="#1C1915" d="M197.307,323.729c-0.376,0.293-1.949,0.477-3.825,0.422c-2.149-0.062-3.884-0.411-3.873-0.78
		c0.001-0.045,0.03-0.088,0.082-0.13c-0.056,0.043-0.087,0.089-0.089,0.136c-0.011,0.369,1.724,0.72,3.873,0.782
		C195.369,324.212,196.95,324.025,197.307,323.729z"/>
	
		<linearGradient id="SVGID_19_" gradientUnits="userSpaceOnUse" x1="213.6838" y1="582.8906" x2="214.11" y2="530.5956" gradientTransform="matrix(1 0 0 1 -20.8599 -238.4453)">
		<stop  offset="0.2147" style="stop-color:#E7E4E6"/>
		<stop  offset="0.263" style="stop-color:#E3E0E2"/>
		<stop  offset="0.315" style="stop-color:#D7D4D5"/>
		<stop  offset="0.3687" style="stop-color:#C3BFBF"/>
		<stop  offset="0.4232" style="stop-color:#A8A3A1"/>
		<stop  offset="0.454" style="stop-color:#95908D"/>
		<stop  offset="0.5568" style="stop-color:#4D4B44"/>
		<stop  offset="0.6113" style="stop-color:#2D2D26"/>
	</linearGradient>
	<path fill="url(#SVGID_19_)" d="M187.044,334.585c1.414,0.369,6.127,0.728,7.308,0.765c0.11,0.004,0.232,0.004,0.369,0.004
		c1.292-0.004,4.604-0.213,6.228-1.638l-0.161-0.351l0.106-1.367l-1.021-0.059c-0.001,0-1.303,0.99-6.068,1.295
		c-0.602,0.037-1.163,0.039-1.687,0.011c-3.773-0.142-5.62-1.771-5.62-1.771l0.008-0.27l-0.319-0.408l-0.791,0.57l-0.381,1.674
		l-0.135,0.018l0.245,0.019C185.589,333.713,186.33,334.398,187.044,334.585z"/>
	
		<radialGradient id="SVGID_20_" cx="162.9944" cy="487.1602" r="6.5694" gradientTransform="matrix(0.9996 0.029 -0.029 0.9996 44.4018 -161.1277)" gradientUnits="userSpaceOnUse">
		<stop  offset="0.0184" style="stop-color:#8C8685"/>
		<stop  offset="0.2393" style="stop-color:#8E8C89"/>
		<stop  offset="0.4847" style="stop-color:#FDFFFF"/>
		<stop  offset="0.7117" style="stop-color:#8E8D8A"/>
		<stop  offset="1" style="stop-color:#8C8685"/>
	</radialGradient>
	<path fill="url(#SVGID_20_)" d="M187.044,334.585c1.414,0.369,6.127,0.728,7.308,0.765c0.11,0.004,0.232,0.004,0.369,0.004
		c1.292-0.004,4.604-0.213,6.228-1.638l-0.161-0.351l0.106-1.367l-1.021-0.059c-0.001,0-1.303,0.99-6.068,1.295
		c-0.602,0.037-1.163,0.039-1.687,0.011c-3.773-0.142-5.62-1.771-5.62-1.771l0.008-0.27l-0.319-0.408l-0.791,0.57l-0.381,1.674
		l-0.135,0.018l0.245,0.019C185.589,333.713,186.33,334.398,187.044,334.585z"/>
	
		<linearGradient id="SVGID_21_" gradientUnits="userSpaceOnUse" x1="210.0691" y1="582.8643" x2="210.4954" y2="530.558" gradientTransform="matrix(1 0 0 1 -20.8599 -238.4453)">
		<stop  offset="0.2147" style="stop-color:#E7E4E6"/>
		<stop  offset="0.263" style="stop-color:#E3E0E2"/>
		<stop  offset="0.315" style="stop-color:#D7D4D5"/>
		<stop  offset="0.3687" style="stop-color:#C3BFBF"/>
		<stop  offset="0.4232" style="stop-color:#A8A3A1"/>
		<stop  offset="0.454" style="stop-color:#95908D"/>
		<stop  offset="0.5568" style="stop-color:#4D4B44"/>
		<stop  offset="0.6113" style="stop-color:#2D2D26"/>
	</linearGradient>
	<path fill="url(#SVGID_21_)" d="M192.117,333.245c-3.627-0.193-5.398-1.765-5.398-1.765l-0.214-0.274l-0.008,0.271
		C186.497,331.475,188.344,333.104,192.117,333.245z"/>
	
		<linearGradient id="SVGID_22_" gradientUnits="userSpaceOnUse" x1="156.3171" y1="488.9326" x2="169.5906" y2="488.9326" gradientTransform="matrix(0.9996 0.029 -0.029 0.9996 44.4018 -161.1277)">
		<stop  offset="0.0061" style="stop-color:#25252A"/>
		<stop  offset="0.454" style="stop-color:#2F3341"/>
		<stop  offset="1" style="stop-color:#25252A"/>
	</linearGradient>
	<path fill="url(#SVGID_22_)" d="M192.117,333.245c-3.627-0.193-5.398-1.765-5.398-1.765l-0.214-0.274l-0.008,0.271
		C186.497,331.475,188.344,333.104,192.117,333.245z"/>
	
		<radialGradient id="SVGID_23_" cx="162.9939" cy="487.1592" r="6.5701" gradientTransform="matrix(0.9996 0.029 -0.029 0.9996 44.4018 -161.1277)" gradientUnits="userSpaceOnUse">
		<stop  offset="0.0184" style="stop-color:#8C8685"/>
		<stop  offset="0.2393" style="stop-color:#8E8C89"/>
		<stop  offset="0.4847" style="stop-color:#FDFFFF"/>
		<stop  offset="0.7117" style="stop-color:#8E8D8A"/>
		<stop  offset="1" style="stop-color:#8C8685"/>
	</radialGradient>
	<path fill="url(#SVGID_23_)" d="M192.117,333.245c-3.627-0.193-5.398-1.765-5.398-1.765l-0.214-0.274l-0.008,0.271
		C186.497,331.475,188.344,333.104,192.117,333.245z"/>
	
		<linearGradient id="SVGID_24_" gradientUnits="userSpaceOnUse" x1="214.2424" y1="582.8975" x2="214.6687" y2="530.5912" gradientTransform="matrix(1 0 0 1 -20.8599 -238.4453)">
		<stop  offset="0.2147" style="stop-color:#E7E4E6"/>
		<stop  offset="0.263" style="stop-color:#E3E0E2"/>
		<stop  offset="0.315" style="stop-color:#D7D4D5"/>
		<stop  offset="0.3687" style="stop-color:#C3BFBF"/>
		<stop  offset="0.4232" style="stop-color:#A8A3A1"/>
		<stop  offset="0.454" style="stop-color:#95908D"/>
		<stop  offset="0.5568" style="stop-color:#4D4B44"/>
		<stop  offset="0.6113" style="stop-color:#2D2D26"/>
	</linearGradient>
	<path fill="url(#SVGID_24_)" d="M201.171,333.511c-0.068,0.072-0.146,0.138-0.224,0.205l0.005,0.009
		c-1.4,1.483-4.644,1.637-6.231,1.629c-0.129,0.002-0.245,0-0.33-0.002c-0.011,0-0.027,0-0.039-0.002
		c-0.137-0.002-0.259-0.005-0.347-0.008c-1.122-0.035-5.947-0.395-7.375-0.77c-0.714-0.187-1.358-0.868-1.824-1.504l0.073-0.01
		l-0.528-0.037l-0.19,2.717c0,0,1.283,1.514,8.801,1.729c7.517,0.222,9.783-1.56,9.783-1.56l-0.509-2.209L201.171,333.511z"/>
	
		<radialGradient id="SVGID_25_" cx="163.0115" cy="724.1533" r="31.2288" gradientTransform="matrix(0.9996 0.029 -0.0099 0.3396 37.3478 82.1794)" gradientUnits="userSpaceOnUse">
		<stop  offset="0.2454" style="stop-color:#323229"/>
		<stop  offset="0.2466" style="stop-color:#3C3B33"/>
		<stop  offset="0.2505" style="stop-color:#55544E"/>
		<stop  offset="0.2549" style="stop-color:#6A6964"/>
		<stop  offset="0.2601" style="stop-color:#7A7975"/>
		<stop  offset="0.2666" style="stop-color:#868480"/>
		<stop  offset="0.2756" style="stop-color:#8C8A87"/>
		<stop  offset="0.3006" style="stop-color:#8E8C89"/>
		<stop  offset="0.7117" style="stop-color:#8E8D8A"/>
		<stop  offset="1" style="stop-color:#8C8685"/>
	</radialGradient>
	<path fill="url(#SVGID_25_)" d="M201.171,333.511c-0.068,0.072-0.146,0.138-0.224,0.205l0.005,0.009
		c-1.4,1.483-4.644,1.637-6.231,1.629c-0.129,0.002-0.245,0-0.33-0.002c-0.011,0-0.027,0-0.039-0.002
		c-0.137-0.002-0.259-0.005-0.347-0.008c-1.122-0.035-5.947-0.395-7.375-0.77c-0.714-0.187-1.358-0.868-1.824-1.504l0.073-0.01
		l-0.528-0.037l-0.19,2.717c0,0,1.283,1.514,8.801,1.729c7.517,0.222,9.783-1.56,9.783-1.56l-0.509-2.209L201.171,333.511z"/>
	
		<linearGradient id="SVGID_26_" gradientUnits="userSpaceOnUse" x1="218.6155" y1="582.9268" x2="219.0415" y2="530.6507" gradientTransform="matrix(1 0 0 1 -20.8599 -238.4453)">
		<stop  offset="0.2147" style="stop-color:#E7E4E6"/>
		<stop  offset="0.263" style="stop-color:#E3E0E2"/>
		<stop  offset="0.315" style="stop-color:#D7D4D5"/>
		<stop  offset="0.3687" style="stop-color:#C3BFBF"/>
		<stop  offset="0.4232" style="stop-color:#A8A3A1"/>
		<stop  offset="0.454" style="stop-color:#95908D"/>
		<stop  offset="0.5568" style="stop-color:#4D4B44"/>
		<stop  offset="0.6113" style="stop-color:#2D2D26"/>
	</linearGradient>
	<path fill="url(#SVGID_26_)" d="M200.952,333.725l-0.005-0.009c-1.622,1.425-4.935,1.634-6.227,1.638
		C196.31,335.359,199.552,335.208,200.952,333.725z"/>
	
		<radialGradient id="SVGID_27_" cx="162.9949" cy="487.1572" r="6.5708" gradientTransform="matrix(0.9996 0.029 -0.029 0.9996 44.4018 -161.1277)" gradientUnits="userSpaceOnUse">
		<stop  offset="0.0184" style="stop-color:#8C8685"/>
		<stop  offset="0.2393" style="stop-color:#8E8C89"/>
		<stop  offset="0.4847" style="stop-color:#FDFFFF"/>
		<stop  offset="0.7117" style="stop-color:#8E8D8A"/>
		<stop  offset="1" style="stop-color:#8C8685"/>
	</radialGradient>
	<path fill="url(#SVGID_27_)" d="M200.952,333.725l-0.005-0.009c-1.622,1.425-4.935,1.634-6.227,1.638
		C196.31,335.359,199.552,335.208,200.952,333.725z"/>
	
		<radialGradient id="SVGID_28_" cx="163.012" cy="724.1533" r="31.2293" gradientTransform="matrix(0.9996 0.029 -0.0099 0.3396 37.3478 82.1794)" gradientUnits="userSpaceOnUse">
		<stop  offset="0.2454" style="stop-color:#323229"/>
		<stop  offset="0.2466" style="stop-color:#3C3B33"/>
		<stop  offset="0.2505" style="stop-color:#55544E"/>
		<stop  offset="0.2549" style="stop-color:#6A6964"/>
		<stop  offset="0.2601" style="stop-color:#7A7975"/>
		<stop  offset="0.2666" style="stop-color:#868480"/>
		<stop  offset="0.2756" style="stop-color:#8C8A87"/>
		<stop  offset="0.3006" style="stop-color:#8E8C89"/>
		<stop  offset="0.7117" style="stop-color:#8E8D8A"/>
		<stop  offset="1" style="stop-color:#8C8685"/>
	</radialGradient>
	<path fill="url(#SVGID_28_)" d="M200.952,333.725l-0.005-0.009c-1.622,1.425-4.935,1.634-6.227,1.638
		C196.31,335.359,199.552,335.208,200.952,333.725z"/>
	
		<linearGradient id="SVGID_29_" gradientUnits="userSpaceOnUse" x1="210.3557" y1="582.8633" x2="210.782" y2="530.5569" gradientTransform="matrix(1 0 0 1 -20.8599 -238.4453)">
		<stop  offset="0.2147" style="stop-color:#E7E4E6"/>
		<stop  offset="0.263" style="stop-color:#E3E0E2"/>
		<stop  offset="0.315" style="stop-color:#D7D4D5"/>
		<stop  offset="0.3687" style="stop-color:#C3BFBF"/>
		<stop  offset="0.4232" style="stop-color:#A8A3A1"/>
		<stop  offset="0.454" style="stop-color:#95908D"/>
		<stop  offset="0.5568" style="stop-color:#4D4B44"/>
		<stop  offset="0.6113" style="stop-color:#2D2D26"/>
	</linearGradient>
	<path fill="url(#SVGID_29_)" d="M186.63,334.573c1.428,0.374,6.253,0.733,7.375,0.769c0.088,0.004,0.21,0.006,0.347,0.008
		c-1.181-0.037-5.895-0.396-7.308-0.765c-0.714-0.187-1.455-0.872-1.92-1.508l-0.245-0.019l-0.073,0.01
		C185.272,333.704,185.916,334.387,186.63,334.573z"/>
	
		<radialGradient id="SVGID_30_" cx="162.9939" cy="487.1562" r="6.5739" gradientTransform="matrix(0.9996 0.029 -0.029 0.9996 44.4018 -161.1277)" gradientUnits="userSpaceOnUse">
		<stop  offset="0.0184" style="stop-color:#8C8685"/>
		<stop  offset="0.2393" style="stop-color:#8E8C89"/>
		<stop  offset="0.4847" style="stop-color:#FDFFFF"/>
		<stop  offset="0.7117" style="stop-color:#8E8D8A"/>
		<stop  offset="1" style="stop-color:#8C8685"/>
	</radialGradient>
	<path fill="url(#SVGID_30_)" d="M186.63,334.573c1.428,0.374,6.253,0.733,7.375,0.769c0.088,0.004,0.21,0.006,0.347,0.008
		c-1.181-0.037-5.895-0.396-7.308-0.765c-0.714-0.187-1.455-0.872-1.92-1.508l-0.245-0.019l-0.073,0.01
		C185.272,333.704,185.916,334.387,186.63,334.573z"/>
	
		<radialGradient id="SVGID_31_" cx="163.012" cy="724.1533" r="31.2333" gradientTransform="matrix(0.9996 0.029 -0.0099 0.3396 37.3478 82.1794)" gradientUnits="userSpaceOnUse">
		<stop  offset="0.2454" style="stop-color:#323229"/>
		<stop  offset="0.2466" style="stop-color:#3C3B33"/>
		<stop  offset="0.2505" style="stop-color:#55544E"/>
		<stop  offset="0.2549" style="stop-color:#6A6964"/>
		<stop  offset="0.2601" style="stop-color:#7A7975"/>
		<stop  offset="0.2666" style="stop-color:#868480"/>
		<stop  offset="0.2756" style="stop-color:#8C8A87"/>
		<stop  offset="0.3006" style="stop-color:#8E8C89"/>
		<stop  offset="0.7117" style="stop-color:#8E8D8A"/>
		<stop  offset="1" style="stop-color:#8C8685"/>
	</radialGradient>
	<path fill="url(#SVGID_31_)" d="M186.63,334.573c1.428,0.374,6.253,0.733,7.375,0.769c0.088,0.004,0.21,0.006,0.347,0.008
		c-1.181-0.037-5.895-0.396-7.308-0.765c-0.714-0.187-1.455-0.872-1.92-1.508l-0.245-0.019l-0.073,0.01
		C185.272,333.704,185.916,334.387,186.63,334.573z"/>
	
		<linearGradient id="SVGID_32_" gradientUnits="userSpaceOnUse" x1="396.5173" y1="475.0225" x2="409.7965" y2="475.0225" gradientTransform="matrix(0.9996 0.029 -0.029 0.9996 44.4018 -161.1277)">
		<stop  offset="0.0061" style="stop-color:#25252A"/>
		<stop  offset="0.454" style="stop-color:#2F3341"/>
		<stop  offset="1" style="stop-color:#25252A"/>
	</linearGradient>
	<path fill="url(#SVGID_32_)" d="M440.23,326.557l0.057-1.935c-0.348,0.242-0.887,0.472-1.609,0.658L440.23,326.557z"/>
	
		<linearGradient id="SVGID_33_" gradientUnits="userSpaceOnUse" x1="454.2581" y1="583.1006" x2="454.6759" y2="531.8334" gradientTransform="matrix(1 0 0 1 -20.8599 -238.4453)">
		<stop  offset="0.2147" style="stop-color:#E7E4E6"/>
		<stop  offset="0.263" style="stop-color:#E3E0E2"/>
		<stop  offset="0.315" style="stop-color:#D7D4D5"/>
		<stop  offset="0.3687" style="stop-color:#C3BFBF"/>
		<stop  offset="0.4232" style="stop-color:#A8A3A1"/>
		<stop  offset="0.454" style="stop-color:#95908D"/>
		<stop  offset="0.5568" style="stop-color:#4D4B44"/>
		<stop  offset="0.6113" style="stop-color:#2D2D26"/>
	</linearGradient>
	<path fill="url(#SVGID_33_)" d="M434.968,325.711c-0.395,0.007-0.809,0.004-1.241-0.009c-4.46-0.129-5.987-1.188-6.448-2.022
		c-0.127,0.105-0.246,0.17-0.246,0.17l-0.21,7.254l0.212,0.271c0,0,1.769,1.565,5.388,1.765c0.465,0.018,0.954,0.016,1.479-0.018
		c4.768-0.303,6.181-1.368,6.181-1.368l0.15-5.194l-1.554-1.276C437.747,325.52,436.515,325.686,434.968,325.711z"/>
	
		<linearGradient id="SVGID_34_" gradientUnits="userSpaceOnUse" x1="396.5261" y1="478.1426" x2="409.7981" y2="478.1426" gradientTransform="matrix(0.9996 0.029 -0.029 0.9996 44.4018 -161.1277)">
		<stop  offset="0.0061" style="stop-color:#25252A"/>
		<stop  offset="0.454" style="stop-color:#2F3341"/>
		<stop  offset="1" style="stop-color:#25252A"/>
	</linearGradient>
	<path fill="url(#SVGID_34_)" d="M434.968,325.711c-0.395,0.007-0.809,0.004-1.241-0.009c-4.46-0.129-5.987-1.188-6.448-2.022
		c-0.127,0.105-0.246,0.17-0.246,0.17l-0.21,7.254l0.212,0.271c0,0,1.769,1.565,5.388,1.765c0.465,0.018,0.954,0.016,1.479-0.018
		c4.768-0.303,6.181-1.368,6.181-1.368l0.15-5.194l-1.554-1.276C437.747,325.52,436.515,325.686,434.968,325.711z"/>
	
		<linearGradient id="SVGID_35_" gradientUnits="userSpaceOnUse" x1="396.8191" y1="473.1738" x2="409.7974" y2="473.1738" gradientTransform="matrix(0.9996 0.029 -0.029 0.9996 44.4018 -161.1277)">
		<stop  offset="0.0184" style="stop-color:#8C8685"/>
		<stop  offset="0.4847" style="stop-color:#CBC6C9"/>
		<stop  offset="1" style="stop-color:#8C8685"/>
	</linearGradient>
	<path fill="url(#SVGID_35_)" d="M437.711,323.488c0,0.003-0.005,0.005-0.006,0.007c0.001,0.005,0.009,0.009,0.009,0.014
		c-0.004,0.146-0.285,0.271-0.748,0.367l1.71,1.404c0.725-0.188,1.265-0.416,1.61-0.659v0.001c0-0.001,0.001-0.001,0.001-0.001
		l0.013-0.389c0,0-1.509-1.896-5.629-2.241l1.043,0.856C436.905,322.996,437.719,323.236,437.711,323.488z"/>
	
		<linearGradient id="SVGID_36_" gradientUnits="userSpaceOnUse" x1="453.7014" y1="583.1035" x2="454.1193" y2="531.823" gradientTransform="matrix(1 0 0 1 -20.8599 -238.4453)">
		<stop  offset="0.2147" style="stop-color:#E7E4E6"/>
		<stop  offset="0.263" style="stop-color:#E3E0E2"/>
		<stop  offset="0.315" style="stop-color:#D7D4D5"/>
		<stop  offset="0.3687" style="stop-color:#C3BFBF"/>
		<stop  offset="0.4232" style="stop-color:#A8A3A1"/>
		<stop  offset="0.454" style="stop-color:#95908D"/>
		<stop  offset="0.5568" style="stop-color:#4D4B44"/>
		<stop  offset="0.6113" style="stop-color:#2D2D26"/>
	</linearGradient>
	<path fill="url(#SVGID_36_)" d="M427.334,323.682c0.461,0.838,1.934,1.893,6.394,2.021c0.434,0.013,0.847,0.016,1.24,0.009
		c1.547-0.025,2.779-0.191,3.708-0.431l-1.71-1.404c-0.711,0.147-1.86,0.226-3.164,0.188c-2.149-0.063-3.884-0.414-3.873-0.782
		c0-0.003,0.004-0.005,0.004-0.007c0-0.004-0.007-0.008-0.007-0.013c0.012-0.37,1.762-0.618,3.912-0.556
		c0.685,0.02,1.317,0.07,1.876,0.141l-1.043-0.855c-0.268-0.022-0.544-0.038-0.833-0.047
		C429.926,321.831,427.923,323.193,427.334,323.682z"/>
	
		<linearGradient id="SVGID_37_" gradientUnits="userSpaceOnUse" x1="396.822" y1="473.4453" x2="409.7976" y2="473.4453" gradientTransform="matrix(0.9996 0.029 -0.029 0.9996 44.4018 -161.1277)">
		<stop  offset="0.0184" style="stop-color:#8C8685"/>
		<stop  offset="0.4847" style="stop-color:#CBC6C9"/>
		<stop  offset="1" style="stop-color:#8C8685"/>
	</linearGradient>
	<path fill="url(#SVGID_37_)" d="M427.334,323.682c0.461,0.838,1.934,1.893,6.394,2.021c0.434,0.013,0.847,0.016,1.24,0.009
		c1.547-0.025,2.779-0.191,3.708-0.431l-1.71-1.404c-0.711,0.147-1.86,0.226-3.164,0.188c-2.149-0.063-3.884-0.414-3.873-0.782
		c0-0.003,0.004-0.005,0.004-0.007c0-0.004-0.007-0.008-0.007-0.013c0.012-0.37,1.762-0.618,3.912-0.556
		c0.685,0.02,1.317,0.07,1.876,0.141l-1.043-0.855c-0.268-0.022-0.544-0.038-0.833-0.047
		C429.926,321.831,427.923,323.193,427.334,323.682z"/>
	
		<linearGradient id="SVGID_38_" gradientUnits="userSpaceOnUse" x1="396.5173" y1="474.4062" x2="409.7965" y2="474.4062" gradientTransform="matrix(0.9996 0.029 -0.029 0.9996 44.4018 -161.1277)">
		<stop  offset="0.0061" style="stop-color:#25252A"/>
		<stop  offset="0.454" style="stop-color:#2F3341"/>
		<stop  offset="1" style="stop-color:#25252A"/>
	</linearGradient>
	<path fill="url(#SVGID_38_)" d="M438.676,325.28L438.676,325.28c0.725-0.188,1.264-0.416,1.61-0.658v-0.001
		C439.94,324.864,439.4,325.094,438.676,325.28z"/>
	
		<linearGradient id="SVGID_39_" gradientUnits="userSpaceOnUse" x1="396.8137" y1="474.4062" x2="409.7978" y2="474.4062" gradientTransform="matrix(0.9996 0.029 -0.029 0.9996 44.4018 -161.1277)">
		<stop  offset="0.0184" style="stop-color:#8C8685"/>
		<stop  offset="0.4847" style="stop-color:#CBC6C9"/>
		<stop  offset="1" style="stop-color:#8C8685"/>
	</linearGradient>
	<path fill="url(#SVGID_39_)" d="M438.676,325.28L438.676,325.28c0.725-0.188,1.264-0.416,1.61-0.658v-0.001
		C439.94,324.864,439.4,325.094,438.676,325.28z"/>
	
		<linearGradient id="SVGID_40_" gradientUnits="userSpaceOnUse" x1="457.5256" y1="583.127" x2="457.9435" y2="531.8597" gradientTransform="matrix(1 0 0 1 -20.8599 -238.4453)">
		<stop  offset="0.2147" style="stop-color:#E7E4E6"/>
		<stop  offset="0.263" style="stop-color:#E3E0E2"/>
		<stop  offset="0.315" style="stop-color:#D7D4D5"/>
		<stop  offset="0.3687" style="stop-color:#C3BFBF"/>
		<stop  offset="0.4232" style="stop-color:#A8A3A1"/>
		<stop  offset="0.454" style="stop-color:#95908D"/>
		<stop  offset="0.5568" style="stop-color:#4D4B44"/>
		<stop  offset="0.6113" style="stop-color:#2D2D26"/>
	</linearGradient>
	<path fill="url(#SVGID_40_)" d="M438.677,325.28L438.677,325.28c-0.93,0.237-2.162,0.405-3.709,0.431
		C436.515,325.686,437.747,325.52,438.677,325.28z"/>
	
		<linearGradient id="SVGID_41_" gradientUnits="userSpaceOnUse" x1="396.5247" y1="475.0273" x2="409.7957" y2="475.0273" gradientTransform="matrix(0.9996 0.029 -0.029 0.9996 44.4018 -161.1277)">
		<stop  offset="0.0061" style="stop-color:#25252A"/>
		<stop  offset="0.454" style="stop-color:#2F3341"/>
		<stop  offset="1" style="stop-color:#25252A"/>
	</linearGradient>
	<path fill="url(#SVGID_41_)" d="M438.677,325.28L438.677,325.28c-0.93,0.237-2.162,0.405-3.709,0.431
		C436.515,325.686,437.747,325.52,438.677,325.28z"/>
	
		<linearGradient id="SVGID_42_" gradientUnits="userSpaceOnUse" x1="396.8206" y1="475.0273" x2="409.7967" y2="475.0273" gradientTransform="matrix(0.9996 0.029 -0.029 0.9996 44.4018 -161.1277)">
		<stop  offset="0.0184" style="stop-color:#8C8685"/>
		<stop  offset="0.4847" style="stop-color:#CBC6C9"/>
		<stop  offset="1" style="stop-color:#8C8685"/>
	</linearGradient>
	<path fill="url(#SVGID_42_)" d="M438.677,325.28L438.677,325.28c-0.93,0.237-2.162,0.405-3.709,0.431
		C436.515,325.686,437.747,325.52,438.677,325.28z"/>
	<path fill="#1C1915" d="M435.742,322.872l1.202,0.985c0.464-0.094,0.748-0.219,0.761-0.362
		C437.686,323.251,436.899,323.02,435.742,322.872z"/>
	<path fill="#1C1915" d="M433.799,324.043c1.293,0.037,2.434-0.039,3.146-0.186l-1.202-0.985c-0.562-0.071-1.206-0.124-1.901-0.146
		c-2.138-0.062-3.877,0.184-3.908,0.549C429.961,323.639,431.674,323.98,433.799,324.043z"/>
	<path fill="#1C1915" d="M437.714,323.509c0-0.005-0.008-0.009-0.009-0.014c-0.013,0.146-0.297,0.269-0.761,0.362l0.021,0.019
		C437.429,323.779,437.71,323.654,437.714,323.509z"/>
	<path fill="#1C1915" d="M433.799,324.043c-2.125-0.062-3.838-0.404-3.866-0.768c0,0.002-0.004,0.004-0.004,0.006
		c-0.011,0.369,1.724,0.719,3.873,0.781c1.304,0.039,2.453-0.039,3.164-0.188l-0.021-0.018
		C436.232,324.004,435.092,324.08,433.799,324.043z"/>
	
		<linearGradient id="SVGID_43_" gradientUnits="userSpaceOnUse" x1="453.9954" y1="583.0986" x2="454.4132" y2="531.8314" gradientTransform="matrix(1 0 0 1 -20.8599 -238.4453)">
		<stop  offset="0.2147" style="stop-color:#E7E4E6"/>
		<stop  offset="0.263" style="stop-color:#E3E0E2"/>
		<stop  offset="0.315" style="stop-color:#D7D4D5"/>
		<stop  offset="0.3687" style="stop-color:#C3BFBF"/>
		<stop  offset="0.4232" style="stop-color:#A8A3A1"/>
		<stop  offset="0.454" style="stop-color:#95908D"/>
		<stop  offset="0.5568" style="stop-color:#4D4B44"/>
		<stop  offset="0.6113" style="stop-color:#2D2D26"/>
	</linearGradient>
	<path fill="url(#SVGID_43_)" d="M426.822,331.104l-0.319-0.41l-0.791,0.568l-0.382,1.674l-0.137,0.019l0.248,0.019
		c0.465,0.637,1.204,1.319,1.92,1.508c1.393,0.362,5.974,0.715,7.244,0.764c0.176,0.004,0.392,0.006,0.642,0.005
		c1.413-0.026,4.475-0.285,6.017-1.634l-0.161-0.355l0.106-1.365l-1.021-0.061c0,0-1.301,0.991-6.067,1.295
		c-0.605,0.039-1.172,0.038-1.698,0.01c-3.765-0.144-5.606-1.771-5.606-1.77L426.822,331.104z"/>
	
		<radialGradient id="SVGID_44_" cx="403.2073" cy="480.0781" r="6.5694" gradientTransform="matrix(0.9996 0.029 -0.029 0.9996 44.4018 -161.1277)" gradientUnits="userSpaceOnUse">
		<stop  offset="0.0184" style="stop-color:#8C8685"/>
		<stop  offset="0.2393" style="stop-color:#8E8C89"/>
		<stop  offset="0.4847" style="stop-color:#FDFFFF"/>
		<stop  offset="0.7117" style="stop-color:#8E8D8A"/>
		<stop  offset="1" style="stop-color:#8C8685"/>
	</radialGradient>
	<path fill="url(#SVGID_44_)" d="M426.822,331.104l-0.319-0.41l-0.791,0.568l-0.382,1.674l-0.137,0.019l0.248,0.019
		c0.465,0.637,1.204,1.319,1.92,1.508c1.393,0.362,5.974,0.715,7.244,0.764c0.176,0.004,0.392,0.006,0.642,0.005
		c1.413-0.026,4.475-0.285,6.017-1.634l-0.161-0.355l0.106-1.365l-1.021-0.061c0,0-1.301,0.991-6.067,1.295
		c-0.605,0.039-1.172,0.038-1.698,0.01c-3.765-0.144-5.606-1.771-5.606-1.77L426.822,331.104z"/>
	
		<linearGradient id="SVGID_45_" gradientUnits="userSpaceOnUse" x1="450.3752" y1="583.0742" x2="450.7932" y2="531.782" gradientTransform="matrix(1 0 0 1 -20.8599 -238.4453)">
		<stop  offset="0.2147" style="stop-color:#E7E4E6"/>
		<stop  offset="0.263" style="stop-color:#E3E0E2"/>
		<stop  offset="0.315" style="stop-color:#D7D4D5"/>
		<stop  offset="0.3687" style="stop-color:#C3BFBF"/>
		<stop  offset="0.4232" style="stop-color:#A8A3A1"/>
		<stop  offset="0.454" style="stop-color:#95908D"/>
		<stop  offset="0.5568" style="stop-color:#4D4B44"/>
		<stop  offset="0.6113" style="stop-color:#2D2D26"/>
	</linearGradient>
	<path fill="url(#SVGID_45_)" d="M426.822,331.104l-0.008,0.265c0-0.001,1.843,1.626,5.606,1.771
		c-3.619-0.197-5.388-1.765-5.388-1.765L426.822,331.104z"/>
	
		<linearGradient id="SVGID_46_" gradientUnits="userSpaceOnUse" x1="396.5251" y1="481.8594" x2="409.7927" y2="481.8594" gradientTransform="matrix(0.9996 0.029 -0.029 0.9996 44.4018 -161.1277)">
		<stop  offset="0.0061" style="stop-color:#25252A"/>
		<stop  offset="0.454" style="stop-color:#2F3341"/>
		<stop  offset="1" style="stop-color:#25252A"/>
	</linearGradient>
	<path fill="url(#SVGID_46_)" d="M426.822,331.104l-0.008,0.265c0-0.001,1.843,1.626,5.606,1.771
		c-3.619-0.197-5.388-1.765-5.388-1.765L426.822,331.104z"/>
	
		<radialGradient id="SVGID_47_" cx="403.2063" cy="480.0811" r="6.5693" gradientTransform="matrix(0.9996 0.029 -0.029 0.9996 44.4018 -161.1277)" gradientUnits="userSpaceOnUse">
		<stop  offset="0.0184" style="stop-color:#8C8685"/>
		<stop  offset="0.2393" style="stop-color:#8E8C89"/>
		<stop  offset="0.4847" style="stop-color:#FDFFFF"/>
		<stop  offset="0.7117" style="stop-color:#8E8D8A"/>
		<stop  offset="1" style="stop-color:#8C8685"/>
	</radialGradient>
	<path fill="url(#SVGID_47_)" d="M426.822,331.104l-0.008,0.265c0-0.001,1.843,1.626,5.606,1.771
		c-3.619-0.197-5.388-1.765-5.388-1.765L426.822,331.104z"/>
	
		<linearGradient id="SVGID_48_" gradientUnits="userSpaceOnUse" x1="454.5569" y1="583.1025" x2="454.9747" y2="531.8353" gradientTransform="matrix(1 0 0 1 -20.8599 -238.4453)">
		<stop  offset="0.2147" style="stop-color:#E7E4E6"/>
		<stop  offset="0.263" style="stop-color:#E3E0E2"/>
		<stop  offset="0.315" style="stop-color:#D7D4D5"/>
		<stop  offset="0.3687" style="stop-color:#C3BFBF"/>
		<stop  offset="0.4232" style="stop-color:#A8A3A1"/>
		<stop  offset="0.454" style="stop-color:#95908D"/>
		<stop  offset="0.5568" style="stop-color:#4D4B44"/>
		<stop  offset="0.6113" style="stop-color:#2D2D26"/>
	</linearGradient>
	<path fill="url(#SVGID_48_)" d="M435.246,335.247c-0.226,0.004-0.41,0.003-0.539-0.001c-0.027-0.001-0.068-0.003-0.103-0.004
		c-0.111-0.002-0.211-0.006-0.285-0.008c-1.122-0.032-5.946-0.396-7.375-0.77c-0.715-0.186-1.356-0.867-1.824-1.504l0.072-0.009
		l-0.526-0.038l-0.188,2.717c0,0,1.283,1.514,8.802,1.73c7.519,0.219,9.782-1.562,9.782-1.562l-0.509-2.21l-1.062-0.188
		c-0.068,0.074-0.148,0.141-0.228,0.209l0.003,0.006C439.927,335.037,436.897,335.236,435.246,335.247z"/>
	
		<radialGradient id="SVGID_49_" cx="403.2268" cy="717.0703" r="31.2365" gradientTransform="matrix(0.9996 0.029 -0.0099 0.3396 37.483 77.5085)" gradientUnits="userSpaceOnUse">
		<stop  offset="0.2454" style="stop-color:#323229"/>
		<stop  offset="0.2466" style="stop-color:#3C3B33"/>
		<stop  offset="0.2505" style="stop-color:#55544E"/>
		<stop  offset="0.2549" style="stop-color:#6A6964"/>
		<stop  offset="0.2601" style="stop-color:#7A7975"/>
		<stop  offset="0.2666" style="stop-color:#868480"/>
		<stop  offset="0.2756" style="stop-color:#8C8A87"/>
		<stop  offset="0.3006" style="stop-color:#8E8C89"/>
		<stop  offset="0.7117" style="stop-color:#8E8D8A"/>
		<stop  offset="1" style="stop-color:#8C8685"/>
	</radialGradient>
	<path fill="url(#SVGID_49_)" d="M435.246,335.247c-0.226,0.004-0.41,0.003-0.539-0.001c-0.027-0.001-0.068-0.003-0.103-0.004
		c-0.111-0.002-0.211-0.006-0.285-0.008c-1.122-0.032-5.946-0.396-7.375-0.77c-0.715-0.186-1.356-0.867-1.824-1.504l0.072-0.009
		l-0.526-0.038l-0.188,2.717c0,0,1.283,1.514,8.802,1.73c7.519,0.219,9.782-1.562,9.782-1.562l-0.509-2.21l-1.062-0.188
		c-0.068,0.074-0.148,0.141-0.228,0.209l0.003,0.006C439.927,335.037,436.897,335.236,435.246,335.247z"/>
	
		<linearGradient id="SVGID_50_" gradientUnits="userSpaceOnUse" x1="450.637" y1="583.0713" x2="451.0548" y2="531.8041" gradientTransform="matrix(1 0 0 1 -20.8599 -238.4453)">
		<stop  offset="0.2147" style="stop-color:#E7E4E6"/>
		<stop  offset="0.263" style="stop-color:#E3E0E2"/>
		<stop  offset="0.315" style="stop-color:#D7D4D5"/>
		<stop  offset="0.3687" style="stop-color:#C3BFBF"/>
		<stop  offset="0.4232" style="stop-color:#A8A3A1"/>
		<stop  offset="0.454" style="stop-color:#95908D"/>
		<stop  offset="0.5568" style="stop-color:#4D4B44"/>
		<stop  offset="0.6113" style="stop-color:#2D2D26"/>
	</linearGradient>
	<path fill="url(#SVGID_50_)" d="M426.945,334.466c1.429,0.374,6.253,0.736,7.375,0.771c0.074,0.002,0.174,0.005,0.285,0.007
		c-1.271-0.048-5.853-0.4-7.244-0.765c-0.716-0.188-1.455-0.869-1.92-1.508l-0.248-0.018l-0.072,0.009
		C425.588,333.6,426.23,334.279,426.945,334.466z"/>
	
		<radialGradient id="SVGID_51_" cx="403.2063" cy="480.0791" r="6.5718" gradientTransform="matrix(0.9996 0.029 -0.029 0.9996 44.4018 -161.1277)" gradientUnits="userSpaceOnUse">
		<stop  offset="0.0184" style="stop-color:#8C8685"/>
		<stop  offset="0.2393" style="stop-color:#8E8C89"/>
		<stop  offset="0.4847" style="stop-color:#FDFFFF"/>
		<stop  offset="0.7117" style="stop-color:#8E8D8A"/>
		<stop  offset="1" style="stop-color:#8C8685"/>
	</radialGradient>
	<path fill="url(#SVGID_51_)" d="M426.945,334.466c1.429,0.374,6.253,0.736,7.375,0.771c0.074,0.002,0.174,0.005,0.285,0.007
		c-1.271-0.048-5.853-0.4-7.244-0.765c-0.716-0.188-1.455-0.869-1.92-1.508l-0.248-0.018l-0.072,0.009
		C425.588,333.6,426.23,334.279,426.945,334.466z"/>
	
		<radialGradient id="SVGID_52_" cx="403.2268" cy="717.0693" r="31.2508" gradientTransform="matrix(0.9996 0.029 -0.0099 0.3396 37.483 77.5085)" gradientUnits="userSpaceOnUse">
		<stop  offset="0.2454" style="stop-color:#323229"/>
		<stop  offset="0.2466" style="stop-color:#3C3B33"/>
		<stop  offset="0.2505" style="stop-color:#55544E"/>
		<stop  offset="0.2549" style="stop-color:#6A6964"/>
		<stop  offset="0.2601" style="stop-color:#7A7975"/>
		<stop  offset="0.2666" style="stop-color:#868480"/>
		<stop  offset="0.2756" style="stop-color:#8C8A87"/>
		<stop  offset="0.3006" style="stop-color:#8E8C89"/>
		<stop  offset="0.7117" style="stop-color:#8E8D8A"/>
		<stop  offset="1" style="stop-color:#8C8685"/>
	</radialGradient>
	<path fill="url(#SVGID_52_)" d="M426.945,334.466c1.429,0.374,6.253,0.736,7.375,0.771c0.074,0.002,0.174,0.005,0.285,0.007
		c-1.271-0.048-5.853-0.4-7.244-0.765c-0.716-0.188-1.455-0.869-1.92-1.508l-0.248-0.018l-0.072,0.009
		C425.588,333.6,426.23,334.279,426.945,334.466z"/>
	
		<linearGradient id="SVGID_53_" gradientUnits="userSpaceOnUse" x1="459.0315" y1="583.1328" x2="459.449" y2="531.8954" gradientTransform="matrix(1 0 0 1 -20.8599 -238.4453)">
		<stop  offset="0.2147" style="stop-color:#E7E4E6"/>
		<stop  offset="0.263" style="stop-color:#E3E0E2"/>
		<stop  offset="0.315" style="stop-color:#D7D4D5"/>
		<stop  offset="0.3687" style="stop-color:#C3BFBF"/>
		<stop  offset="0.4232" style="stop-color:#A8A3A1"/>
		<stop  offset="0.454" style="stop-color:#95908D"/>
		<stop  offset="0.5568" style="stop-color:#4D4B44"/>
		<stop  offset="0.6113" style="stop-color:#2D2D26"/>
	</linearGradient>
	<path fill="url(#SVGID_53_)" d="M441.266,333.619l-0.003-0.006c-1.542,1.349-4.604,1.605-6.017,1.634
		C436.897,335.236,439.927,335.037,441.266,333.619z"/>
	
		<radialGradient id="SVGID_54_" cx="403.2083" cy="480.0811" r="6.5681" gradientTransform="matrix(0.9996 0.029 -0.029 0.9996 44.4018 -161.1277)" gradientUnits="userSpaceOnUse">
		<stop  offset="0.0184" style="stop-color:#8C8685"/>
		<stop  offset="0.2393" style="stop-color:#8E8C89"/>
		<stop  offset="0.4847" style="stop-color:#FDFFFF"/>
		<stop  offset="0.7117" style="stop-color:#8E8D8A"/>
		<stop  offset="1" style="stop-color:#8C8685"/>
	</radialGradient>
	<path fill="url(#SVGID_54_)" d="M441.266,333.619l-0.003-0.006c-1.542,1.349-4.604,1.605-6.017,1.634
		C436.897,335.236,439.927,335.037,441.266,333.619z"/>
	
		<radialGradient id="SVGID_55_" cx="403.2278" cy="717.0723" r="31.2285" gradientTransform="matrix(0.9996 0.029 -0.0099 0.3396 37.483 77.5085)" gradientUnits="userSpaceOnUse">
		<stop  offset="0.2454" style="stop-color:#323229"/>
		<stop  offset="0.2466" style="stop-color:#3C3B33"/>
		<stop  offset="0.2505" style="stop-color:#55544E"/>
		<stop  offset="0.2549" style="stop-color:#6A6964"/>
		<stop  offset="0.2601" style="stop-color:#7A7975"/>
		<stop  offset="0.2666" style="stop-color:#868480"/>
		<stop  offset="0.2756" style="stop-color:#8C8A87"/>
		<stop  offset="0.3006" style="stop-color:#8E8C89"/>
		<stop  offset="0.7117" style="stop-color:#8E8D8A"/>
		<stop  offset="1" style="stop-color:#8C8685"/>
	</radialGradient>
	<path fill="url(#SVGID_55_)" d="M441.266,333.619l-0.003-0.006c-1.542,1.349-4.604,1.605-6.017,1.634
		C436.897,335.236,439.927,335.037,441.266,333.619z"/>
	
		<linearGradient id="SVGID_56_" gradientUnits="userSpaceOnUse" x1="316.9431" y1="231.1997" x2="316.9431" y2="259.1343" gradientTransform="matrix(1 0 0 -1 0.1401 599.0547)">
		<stop  offset="0" style="stop-color:#939499"/>
		<stop  offset="0.4049" style="stop-color:#7C7C88"/>
		<stop  offset="0.9816" style="stop-color:#656572"/>
	</linearGradient>
	<polygon opacity="0.14" fill="url(#SVGID_56_)" enable-background="new    " points="314.651,340.005 314.651,340.005 
		298.832,340.061 300,367.855 335.335,367.648 334.004,339.921 	"/>
	
		<linearGradient id="SVGID_57_" gradientUnits="userSpaceOnUse" x1="316.281" y1="259.0464" x2="316.281" y2="266.3384" gradientTransform="matrix(1 0 0 -1 0.1401 599.0547)">
		<stop  offset="0" style="stop-color:#E7E4E6"/>
		<stop  offset="0.5767" style="stop-color:#E3E0E2"/>
		<stop  offset="1" style="stop-color:#C3BFBF"/>
	</linearGradient>
	<path opacity="0.54" fill="url(#SVGID_57_)" enable-background="new    " d="M334.002,339.869L334,339.834l-2.124-7.117
		c0,3.155-7.335,5.713-16.385,5.713l0,0l-0.001,0.002v-0.002l0,0c-6.458,0-13.437-2.012-15.653-4.315l-0.996,5.895l0.705-0.003
		l15.135-0.061l0.002-0.004l17.173-0.062L334.002,339.869z"/>
</g>
</svg>
